<?xml version="1.0" encoding="utf-8" standalone="no"?>
<!DOCTYPE svg PUBLIC "-//W3C//DTD SVG 1.1//EN"
  "http://www.w3.org/Graphics/SVG/1.1/DTD/svg11.dtd">
<!-- Created with matplotlib (http://matplotlib.org/) -->
<svg height="297pt" version="1.1" viewBox="0 0 516 297" width="516pt" xmlns="http://www.w3.org/2000/svg" xmlns:xlink="http://www.w3.org/1999/xlink">
 <defs>
  <style type="text/css">
*{stroke-linecap:butt;stroke-linejoin:round;}
  </style>
 </defs>
 <g id="figure_1">
  <g id="patch_1">
   <path d="M 0 297.73625 
L 516.790625 297.73625 
L 516.790625 0 
L 0 0 
z
" style="fill:#ffffff;"/>
  </g>
  <g id="axes_1">
   <g id="patch_2">
    <path d="M 59.690625 260.18 
L 506.090625 260.18 
L 506.090625 10.7 
L 59.690625 10.7 
z
" style="fill:#ffffff;"/>
   </g>
   <g id="matplotlib.axis_1">
    <g id="xtick_1">
     <g id="line2d_1">
      <defs>
       <path d="M 0 0 
L 0 3.5 
" id="m52cf5a2ca4" style="stroke:#000000;stroke-width:0.8;"/>
      </defs>
      <g>
       <use style="stroke:#000000;stroke-width:0.8;" x="79.921832" xlink:href="#m52cf5a2ca4" y="260.18"/>
      </g>
     </g>
     <g id="text_1">
      <!-- 0 -->
      <defs>
       <path d="M 31.78125 66.40625 
Q 24.171875 66.40625 20.328125 58.90625 
Q 16.5 51.421875 16.5 36.375 
Q 16.5 21.390625 20.328125 13.890625 
Q 24.171875 6.390625 31.78125 6.390625 
Q 39.453125 6.390625 43.28125 13.890625 
Q 47.125 21.390625 47.125 36.375 
Q 47.125 51.421875 43.28125 58.90625 
Q 39.453125 66.40625 31.78125 66.40625 
M 31.78125 74.21875 
Q 44.046875 74.21875 50.515625 64.515625 
Q 56.984375 54.828125 56.984375 36.375 
Q 56.984375 17.96875 50.515625 8.265625 
Q 44.046875 -1.421875 31.78125 -1.421875 
Q 19.53125 -1.421875 13.0625 8.265625 
Q 6.59375 17.96875 6.59375 36.375 
Q 6.59375 54.828125 13.0625 64.515625 
Q 19.53125 74.21875 31.78125 74.21875 
" id="DejaVuSans-30"/>
      </defs>
      <g transform="translate(76.740582 274.778437)scale(0.1 -0.1)">
       <use xlink:href="#DejaVuSans-30"/>
      </g>
     </g>
    </g>
    <g id="xtick_2">
     <g id="line2d_2">
      <g>
       <use style="stroke:#000000;stroke-width:0.8;" x="161.107557" xlink:href="#m52cf5a2ca4" y="260.18"/>
      </g>
     </g>
     <g id="text_2">
      <!-- 200 -->
      <defs>
       <path d="M 19.1875 8.296875 
L 53.609375 8.296875 
L 53.609375 0 
L 7.328125 0 
L 7.328125 8.296875 
Q 12.9375 14.109375 22.625 23.890625 
Q 32.328125 33.6875 34.8125 36.53125 
Q 39.546875 41.84375 41.421875 45.53125 
Q 43.3125 49.21875 43.3125 52.78125 
Q 43.3125 58.59375 39.234375 62.25 
Q 35.15625 65.921875 28.609375 65.921875 
Q 23.96875 65.921875 18.8125 64.3125 
Q 13.671875 62.703125 7.8125 59.421875 
L 7.8125 69.390625 
Q 13.765625 71.78125 18.9375 73 
Q 24.125 74.21875 28.421875 74.21875 
Q 39.75 74.21875 46.484375 68.546875 
Q 53.21875 62.890625 53.21875 53.421875 
Q 53.21875 48.921875 51.53125 44.890625 
Q 49.859375 40.875 45.40625 35.40625 
Q 44.1875 33.984375 37.640625 27.21875 
Q 31.109375 20.453125 19.1875 8.296875 
" id="DejaVuSans-32"/>
      </defs>
      <g transform="translate(151.563807 274.778437)scale(0.1 -0.1)">
       <use xlink:href="#DejaVuSans-32"/>
       <use x="63.623047" xlink:href="#DejaVuSans-30"/>
       <use x="127.246094" xlink:href="#DejaVuSans-30"/>
      </g>
     </g>
    </g>
    <g id="xtick_3">
     <g id="line2d_3">
      <g>
       <use style="stroke:#000000;stroke-width:0.8;" x="242.293282" xlink:href="#m52cf5a2ca4" y="260.18"/>
      </g>
     </g>
     <g id="text_3">
      <!-- 400 -->
      <defs>
       <path d="M 37.796875 64.3125 
L 12.890625 25.390625 
L 37.796875 25.390625 
z
M 35.203125 72.90625 
L 47.609375 72.90625 
L 47.609375 25.390625 
L 58.015625 25.390625 
L 58.015625 17.1875 
L 47.609375 17.1875 
L 47.609375 0 
L 37.796875 0 
L 37.796875 17.1875 
L 4.890625 17.1875 
L 4.890625 26.703125 
z
" id="DejaVuSans-34"/>
      </defs>
      <g transform="translate(232.749532 274.778437)scale(0.1 -0.1)">
       <use xlink:href="#DejaVuSans-34"/>
       <use x="63.623047" xlink:href="#DejaVuSans-30"/>
       <use x="127.246094" xlink:href="#DejaVuSans-30"/>
      </g>
     </g>
    </g>
    <g id="xtick_4">
     <g id="line2d_4">
      <g>
       <use style="stroke:#000000;stroke-width:0.8;" x="323.479006" xlink:href="#m52cf5a2ca4" y="260.18"/>
      </g>
     </g>
     <g id="text_4">
      <!-- 600 -->
      <defs>
       <path d="M 33.015625 40.375 
Q 26.375 40.375 22.484375 35.828125 
Q 18.609375 31.296875 18.609375 23.390625 
Q 18.609375 15.53125 22.484375 10.953125 
Q 26.375 6.390625 33.015625 6.390625 
Q 39.65625 6.390625 43.53125 10.953125 
Q 47.40625 15.53125 47.40625 23.390625 
Q 47.40625 31.296875 43.53125 35.828125 
Q 39.65625 40.375 33.015625 40.375 
M 52.59375 71.296875 
L 52.59375 62.3125 
Q 48.875 64.0625 45.09375 64.984375 
Q 41.3125 65.921875 37.59375 65.921875 
Q 27.828125 65.921875 22.671875 59.328125 
Q 17.53125 52.734375 16.796875 39.40625 
Q 19.671875 43.65625 24.015625 45.921875 
Q 28.375 48.1875 33.59375 48.1875 
Q 44.578125 48.1875 50.953125 41.515625 
Q 57.328125 34.859375 57.328125 23.390625 
Q 57.328125 12.15625 50.6875 5.359375 
Q 44.046875 -1.421875 33.015625 -1.421875 
Q 20.359375 -1.421875 13.671875 8.265625 
Q 6.984375 17.96875 6.984375 36.375 
Q 6.984375 53.65625 15.1875 63.9375 
Q 23.390625 74.21875 37.203125 74.21875 
Q 40.921875 74.21875 44.703125 73.484375 
Q 48.484375 72.75 52.59375 71.296875 
" id="DejaVuSans-36"/>
      </defs>
      <g transform="translate(313.935256 274.778437)scale(0.1 -0.1)">
       <use xlink:href="#DejaVuSans-36"/>
       <use x="63.623047" xlink:href="#DejaVuSans-30"/>
       <use x="127.246094" xlink:href="#DejaVuSans-30"/>
      </g>
     </g>
    </g>
    <g id="xtick_5">
     <g id="line2d_5">
      <g>
       <use style="stroke:#000000;stroke-width:0.8;" x="404.664731" xlink:href="#m52cf5a2ca4" y="260.18"/>
      </g>
     </g>
     <g id="text_5">
      <!-- 800 -->
      <defs>
       <path d="M 31.78125 34.625 
Q 24.75 34.625 20.71875 30.859375 
Q 16.703125 27.09375 16.703125 20.515625 
Q 16.703125 13.921875 20.71875 10.15625 
Q 24.75 6.390625 31.78125 6.390625 
Q 38.8125 6.390625 42.859375 10.171875 
Q 46.921875 13.96875 46.921875 20.515625 
Q 46.921875 27.09375 42.890625 30.859375 
Q 38.875 34.625 31.78125 34.625 
M 21.921875 38.8125 
Q 15.578125 40.375 12.03125 44.71875 
Q 8.5 49.078125 8.5 55.328125 
Q 8.5 64.0625 14.71875 69.140625 
Q 20.953125 74.21875 31.78125 74.21875 
Q 42.671875 74.21875 48.875 69.140625 
Q 55.078125 64.0625 55.078125 55.328125 
Q 55.078125 49.078125 51.53125 44.71875 
Q 48 40.375 41.703125 38.8125 
Q 48.828125 37.15625 52.796875 32.3125 
Q 56.78125 27.484375 56.78125 20.515625 
Q 56.78125 9.90625 50.3125 4.234375 
Q 43.84375 -1.421875 31.78125 -1.421875 
Q 19.734375 -1.421875 13.25 4.234375 
Q 6.78125 9.90625 6.78125 20.515625 
Q 6.78125 27.484375 10.78125 32.3125 
Q 14.796875 37.15625 21.921875 38.8125 
M 18.3125 54.390625 
Q 18.3125 48.734375 21.84375 45.5625 
Q 25.390625 42.390625 31.78125 42.390625 
Q 38.140625 42.390625 41.71875 45.5625 
Q 45.3125 48.734375 45.3125 54.390625 
Q 45.3125 60.0625 41.71875 63.234375 
Q 38.140625 66.40625 31.78125 66.40625 
Q 25.390625 66.40625 21.84375 63.234375 
Q 18.3125 60.0625 18.3125 54.390625 
" id="DejaVuSans-38"/>
      </defs>
      <g transform="translate(395.120981 274.778437)scale(0.1 -0.1)">
       <use xlink:href="#DejaVuSans-38"/>
       <use x="63.623047" xlink:href="#DejaVuSans-30"/>
       <use x="127.246094" xlink:href="#DejaVuSans-30"/>
      </g>
     </g>
    </g>
    <g id="xtick_6">
     <g id="line2d_6">
      <g>
       <use style="stroke:#000000;stroke-width:0.8;" x="485.850456" xlink:href="#m52cf5a2ca4" y="260.18"/>
      </g>
     </g>
     <g id="text_6">
      <!-- 1000 -->
      <defs>
       <path d="M 12.40625 8.296875 
L 28.515625 8.296875 
L 28.515625 63.921875 
L 10.984375 60.40625 
L 10.984375 69.390625 
L 28.421875 72.90625 
L 38.28125 72.90625 
L 38.28125 8.296875 
L 54.390625 8.296875 
L 54.390625 0 
L 12.40625 0 
z
" id="DejaVuSans-31"/>
      </defs>
      <g transform="translate(473.125456 274.778437)scale(0.1 -0.1)">
       <use xlink:href="#DejaVuSans-31"/>
       <use x="63.623047" xlink:href="#DejaVuSans-30"/>
       <use x="127.246094" xlink:href="#DejaVuSans-30"/>
       <use x="190.869141" xlink:href="#DejaVuSans-30"/>
      </g>
     </g>
    </g>
    <g id="text_7">
     <!-- Energy (eV) -->
     <defs>
      <path d="M 9.8125 72.90625 
L 55.90625 72.90625 
L 55.90625 64.59375 
L 19.671875 64.59375 
L 19.671875 43.015625 
L 54.390625 43.015625 
L 54.390625 34.71875 
L 19.671875 34.71875 
L 19.671875 8.296875 
L 56.78125 8.296875 
L 56.78125 0 
L 9.8125 0 
z
" id="DejaVuSans-45"/>
      <path d="M 54.890625 33.015625 
L 54.890625 0 
L 45.90625 0 
L 45.90625 32.71875 
Q 45.90625 40.484375 42.875 44.328125 
Q 39.84375 48.1875 33.796875 48.1875 
Q 26.515625 48.1875 22.3125 43.546875 
Q 18.109375 38.921875 18.109375 30.90625 
L 18.109375 0 
L 9.078125 0 
L 9.078125 54.6875 
L 18.109375 54.6875 
L 18.109375 46.1875 
Q 21.34375 51.125 25.703125 53.5625 
Q 30.078125 56 35.796875 56 
Q 45.21875 56 50.046875 50.171875 
Q 54.890625 44.34375 54.890625 33.015625 
" id="DejaVuSans-6e"/>
      <path d="M 56.203125 29.59375 
L 56.203125 25.203125 
L 14.890625 25.203125 
Q 15.484375 15.921875 20.484375 11.0625 
Q 25.484375 6.203125 34.421875 6.203125 
Q 39.59375 6.203125 44.453125 7.46875 
Q 49.3125 8.734375 54.109375 11.28125 
L 54.109375 2.78125 
Q 49.265625 0.734375 44.1875 -0.34375 
Q 39.109375 -1.421875 33.890625 -1.421875 
Q 20.796875 -1.421875 13.15625 6.1875 
Q 5.515625 13.8125 5.515625 26.8125 
Q 5.515625 40.234375 12.765625 48.109375 
Q 20.015625 56 32.328125 56 
Q 43.359375 56 49.78125 48.890625 
Q 56.203125 41.796875 56.203125 29.59375 
M 47.21875 32.234375 
Q 47.125 39.59375 43.09375 43.984375 
Q 39.0625 48.390625 32.421875 48.390625 
Q 24.90625 48.390625 20.390625 44.140625 
Q 15.875 39.890625 15.1875 32.171875 
z
" id="DejaVuSans-65"/>
      <path d="M 41.109375 46.296875 
Q 39.59375 47.171875 37.8125 47.578125 
Q 36.03125 48 33.890625 48 
Q 26.265625 48 22.1875 43.046875 
Q 18.109375 38.09375 18.109375 28.8125 
L 18.109375 0 
L 9.078125 0 
L 9.078125 54.6875 
L 18.109375 54.6875 
L 18.109375 46.1875 
Q 20.953125 51.171875 25.484375 53.578125 
Q 30.03125 56 36.53125 56 
Q 37.453125 56 38.578125 55.875 
Q 39.703125 55.765625 41.0625 55.515625 
z
" id="DejaVuSans-72"/>
      <path d="M 45.40625 27.984375 
Q 45.40625 37.75 41.375 43.109375 
Q 37.359375 48.484375 30.078125 48.484375 
Q 22.859375 48.484375 18.828125 43.109375 
Q 14.796875 37.75 14.796875 27.984375 
Q 14.796875 18.265625 18.828125 12.890625 
Q 22.859375 7.515625 30.078125 7.515625 
Q 37.359375 7.515625 41.375 12.890625 
Q 45.40625 18.265625 45.40625 27.984375 
M 54.390625 6.78125 
Q 54.390625 -7.171875 48.1875 -13.984375 
Q 42 -20.796875 29.203125 -20.796875 
Q 24.46875 -20.796875 20.265625 -20.09375 
Q 16.0625 -19.390625 12.109375 -17.921875 
L 12.109375 -9.1875 
Q 16.0625 -11.328125 19.921875 -12.34375 
Q 23.78125 -13.375 27.78125 -13.375 
Q 36.625 -13.375 41.015625 -8.765625 
Q 45.40625 -4.15625 45.40625 5.171875 
L 45.40625 9.625 
Q 42.625 4.78125 38.28125 2.390625 
Q 33.9375 0 27.875 0 
Q 17.828125 0 11.671875 7.65625 
Q 5.515625 15.328125 5.515625 27.984375 
Q 5.515625 40.671875 11.671875 48.328125 
Q 17.828125 56 27.875 56 
Q 33.9375 56 38.28125 53.609375 
Q 42.625 51.21875 45.40625 46.390625 
L 45.40625 54.6875 
L 54.390625 54.6875 
z
" id="DejaVuSans-67"/>
      <path d="M 32.171875 -5.078125 
Q 28.375 -14.84375 24.75 -17.8125 
Q 21.140625 -20.796875 15.09375 -20.796875 
L 7.90625 -20.796875 
L 7.90625 -13.28125 
L 13.1875 -13.28125 
Q 16.890625 -13.28125 18.9375 -11.515625 
Q 21 -9.765625 23.484375 -3.21875 
L 25.09375 0.875 
L 2.984375 54.6875 
L 12.5 54.6875 
L 29.59375 11.921875 
L 46.6875 54.6875 
L 56.203125 54.6875 
z
" id="DejaVuSans-79"/>
      <path id="DejaVuSans-20"/>
      <path d="M 31 75.875 
Q 24.46875 64.65625 21.28125 53.65625 
Q 18.109375 42.671875 18.109375 31.390625 
Q 18.109375 20.125 21.3125 9.0625 
Q 24.515625 -2 31 -13.1875 
L 23.1875 -13.1875 
Q 15.875 -1.703125 12.234375 9.375 
Q 8.59375 20.453125 8.59375 31.390625 
Q 8.59375 42.28125 12.203125 53.3125 
Q 15.828125 64.359375 23.1875 75.875 
z
" id="DejaVuSans-28"/>
      <path d="M 28.609375 0 
L 0.78125 72.90625 
L 11.078125 72.90625 
L 34.1875 11.53125 
L 57.328125 72.90625 
L 67.578125 72.90625 
L 39.796875 0 
z
" id="DejaVuSans-56"/>
      <path d="M 8.015625 75.875 
L 15.828125 75.875 
Q 23.140625 64.359375 26.78125 53.3125 
Q 30.421875 42.28125 30.421875 31.390625 
Q 30.421875 20.453125 26.78125 9.375 
Q 23.140625 -1.703125 15.828125 -13.1875 
L 8.015625 -13.1875 
Q 14.5 -2 17.703125 9.0625 
Q 20.90625 20.125 20.90625 31.390625 
Q 20.90625 42.671875 17.703125 53.65625 
Q 14.5 64.65625 8.015625 75.875 
" id="DejaVuSans-29"/>
     </defs>
     <g transform="translate(253.310156 288.456562)scale(0.1 -0.1)">
      <use xlink:href="#DejaVuSans-45"/>
      <use x="63.183594" xlink:href="#DejaVuSans-6e"/>
      <use x="126.5625" xlink:href="#DejaVuSans-65"/>
      <use x="188.085938" xlink:href="#DejaVuSans-72"/>
      <use x="229.183594" xlink:href="#DejaVuSans-67"/>
      <use x="292.660156" xlink:href="#DejaVuSans-79"/>
      <use x="351.839844" xlink:href="#DejaVuSans-20"/>
      <use x="383.626953" xlink:href="#DejaVuSans-28"/>
      <use x="422.640625" xlink:href="#DejaVuSans-65"/>
      <use x="484.164062" xlink:href="#DejaVuSans-56"/>
      <use x="552.572266" xlink:href="#DejaVuSans-29"/>
     </g>
    </g>
   </g>
   <g id="matplotlib.axis_2">
    <g id="ytick_1">
     <g id="line2d_7">
      <defs>
       <path d="M 0 0 
L -3.5 0 
" id="m2dd0f437b7" style="stroke:#000000;stroke-width:0.8;"/>
      </defs>
      <g>
       <use style="stroke:#000000;stroke-width:0.8;" x="59.690625" xlink:href="#m2dd0f437b7" y="248.84"/>
      </g>
     </g>
     <g id="text_8">
      <!-- 0 -->
      <g transform="translate(46.328125 252.639219)scale(0.1 -0.1)">
       <use xlink:href="#DejaVuSans-30"/>
      </g>
     </g>
    </g>
    <g id="ytick_2">
     <g id="line2d_8">
      <g>
       <use style="stroke:#000000;stroke-width:0.8;" x="59.690625" xlink:href="#m2dd0f437b7" y="217.621831"/>
      </g>
     </g>
     <g id="text_9">
      <!-- 2000 -->
      <g transform="translate(27.240625 221.421049)scale(0.1 -0.1)">
       <use xlink:href="#DejaVuSans-32"/>
       <use x="63.623047" xlink:href="#DejaVuSans-30"/>
       <use x="127.246094" xlink:href="#DejaVuSans-30"/>
       <use x="190.869141" xlink:href="#DejaVuSans-30"/>
      </g>
     </g>
    </g>
    <g id="ytick_3">
     <g id="line2d_9">
      <g>
       <use style="stroke:#000000;stroke-width:0.8;" x="59.690625" xlink:href="#m2dd0f437b7" y="186.403661"/>
      </g>
     </g>
     <g id="text_10">
      <!-- 4000 -->
      <g transform="translate(27.240625 190.20288)scale(0.1 -0.1)">
       <use xlink:href="#DejaVuSans-34"/>
       <use x="63.623047" xlink:href="#DejaVuSans-30"/>
       <use x="127.246094" xlink:href="#DejaVuSans-30"/>
       <use x="190.869141" xlink:href="#DejaVuSans-30"/>
      </g>
     </g>
    </g>
    <g id="ytick_4">
     <g id="line2d_10">
      <g>
       <use style="stroke:#000000;stroke-width:0.8;" x="59.690625" xlink:href="#m2dd0f437b7" y="155.185492"/>
      </g>
     </g>
     <g id="text_11">
      <!-- 6000 -->
      <g transform="translate(27.240625 158.984711)scale(0.1 -0.1)">
       <use xlink:href="#DejaVuSans-36"/>
       <use x="63.623047" xlink:href="#DejaVuSans-30"/>
       <use x="127.246094" xlink:href="#DejaVuSans-30"/>
       <use x="190.869141" xlink:href="#DejaVuSans-30"/>
      </g>
     </g>
    </g>
    <g id="ytick_5">
     <g id="line2d_11">
      <g>
       <use style="stroke:#000000;stroke-width:0.8;" x="59.690625" xlink:href="#m2dd0f437b7" y="123.967323"/>
      </g>
     </g>
     <g id="text_12">
      <!-- 8000 -->
      <g transform="translate(27.240625 127.766542)scale(0.1 -0.1)">
       <use xlink:href="#DejaVuSans-38"/>
       <use x="63.623047" xlink:href="#DejaVuSans-30"/>
       <use x="127.246094" xlink:href="#DejaVuSans-30"/>
       <use x="190.869141" xlink:href="#DejaVuSans-30"/>
      </g>
     </g>
    </g>
    <g id="ytick_6">
     <g id="line2d_12">
      <g>
       <use style="stroke:#000000;stroke-width:0.8;" x="59.690625" xlink:href="#m2dd0f437b7" y="92.749153"/>
      </g>
     </g>
     <g id="text_13">
      <!-- 10000 -->
      <g transform="translate(20.878125 96.548372)scale(0.1 -0.1)">
       <use xlink:href="#DejaVuSans-31"/>
       <use x="63.623047" xlink:href="#DejaVuSans-30"/>
       <use x="127.246094" xlink:href="#DejaVuSans-30"/>
       <use x="190.869141" xlink:href="#DejaVuSans-30"/>
       <use x="254.492188" xlink:href="#DejaVuSans-30"/>
      </g>
     </g>
    </g>
    <g id="ytick_7">
     <g id="line2d_13">
      <g>
       <use style="stroke:#000000;stroke-width:0.8;" x="59.690625" xlink:href="#m2dd0f437b7" y="61.530984"/>
      </g>
     </g>
     <g id="text_14">
      <!-- 12000 -->
      <g transform="translate(20.878125 65.330203)scale(0.1 -0.1)">
       <use xlink:href="#DejaVuSans-31"/>
       <use x="63.623047" xlink:href="#DejaVuSans-32"/>
       <use x="127.246094" xlink:href="#DejaVuSans-30"/>
       <use x="190.869141" xlink:href="#DejaVuSans-30"/>
       <use x="254.492188" xlink:href="#DejaVuSans-30"/>
      </g>
     </g>
    </g>
    <g id="ytick_8">
     <g id="line2d_14">
      <g>
       <use style="stroke:#000000;stroke-width:0.8;" x="59.690625" xlink:href="#m2dd0f437b7" y="30.312815"/>
      </g>
     </g>
     <g id="text_15">
      <!-- 14000 -->
      <g transform="translate(20.878125 34.112034)scale(0.1 -0.1)">
       <use xlink:href="#DejaVuSans-31"/>
       <use x="63.623047" xlink:href="#DejaVuSans-34"/>
       <use x="127.246094" xlink:href="#DejaVuSans-30"/>
       <use x="190.869141" xlink:href="#DejaVuSans-30"/>
       <use x="254.492188" xlink:href="#DejaVuSans-30"/>
      </g>
     </g>
    </g>
    <g id="text_16">
     <!-- Intensity (a.u.) -->
     <defs>
      <path d="M 9.8125 72.90625 
L 19.671875 72.90625 
L 19.671875 0 
L 9.8125 0 
z
" id="DejaVuSans-49"/>
      <path d="M 18.3125 70.21875 
L 18.3125 54.6875 
L 36.8125 54.6875 
L 36.8125 47.703125 
L 18.3125 47.703125 
L 18.3125 18.015625 
Q 18.3125 11.328125 20.140625 9.421875 
Q 21.96875 7.515625 27.59375 7.515625 
L 36.8125 7.515625 
L 36.8125 0 
L 27.59375 0 
Q 17.1875 0 13.234375 3.875 
Q 9.28125 7.765625 9.28125 18.015625 
L 9.28125 47.703125 
L 2.6875 47.703125 
L 2.6875 54.6875 
L 9.28125 54.6875 
L 9.28125 70.21875 
z
" id="DejaVuSans-74"/>
      <path d="M 44.28125 53.078125 
L 44.28125 44.578125 
Q 40.484375 46.53125 36.375 47.5 
Q 32.28125 48.484375 27.875 48.484375 
Q 21.1875 48.484375 17.84375 46.4375 
Q 14.5 44.390625 14.5 40.28125 
Q 14.5 37.15625 16.890625 35.375 
Q 19.28125 33.59375 26.515625 31.984375 
L 29.59375 31.296875 
Q 39.15625 29.25 43.1875 25.515625 
Q 47.21875 21.78125 47.21875 15.09375 
Q 47.21875 7.46875 41.1875 3.015625 
Q 35.15625 -1.421875 24.609375 -1.421875 
Q 20.21875 -1.421875 15.453125 -0.5625 
Q 10.6875 0.296875 5.421875 2 
L 5.421875 11.28125 
Q 10.40625 8.6875 15.234375 7.390625 
Q 20.0625 6.109375 24.8125 6.109375 
Q 31.15625 6.109375 34.5625 8.28125 
Q 37.984375 10.453125 37.984375 14.40625 
Q 37.984375 18.0625 35.515625 20.015625 
Q 33.0625 21.96875 24.703125 23.78125 
L 21.578125 24.515625 
Q 13.234375 26.265625 9.515625 29.90625 
Q 5.8125 33.546875 5.8125 39.890625 
Q 5.8125 47.609375 11.28125 51.796875 
Q 16.75 56 26.8125 56 
Q 31.78125 56 36.171875 55.265625 
Q 40.578125 54.546875 44.28125 53.078125 
" id="DejaVuSans-73"/>
      <path d="M 9.421875 54.6875 
L 18.40625 54.6875 
L 18.40625 0 
L 9.421875 0 
z
M 9.421875 75.984375 
L 18.40625 75.984375 
L 18.40625 64.59375 
L 9.421875 64.59375 
z
" id="DejaVuSans-69"/>
      <path d="M 34.28125 27.484375 
Q 23.390625 27.484375 19.1875 25 
Q 14.984375 22.515625 14.984375 16.5 
Q 14.984375 11.71875 18.140625 8.90625 
Q 21.296875 6.109375 26.703125 6.109375 
Q 34.1875 6.109375 38.703125 11.40625 
Q 43.21875 16.703125 43.21875 25.484375 
L 43.21875 27.484375 
z
M 52.203125 31.203125 
L 52.203125 0 
L 43.21875 0 
L 43.21875 8.296875 
Q 40.140625 3.328125 35.546875 0.953125 
Q 30.953125 -1.421875 24.3125 -1.421875 
Q 15.921875 -1.421875 10.953125 3.296875 
Q 6 8.015625 6 15.921875 
Q 6 25.140625 12.171875 29.828125 
Q 18.359375 34.515625 30.609375 34.515625 
L 43.21875 34.515625 
L 43.21875 35.40625 
Q 43.21875 41.609375 39.140625 45 
Q 35.0625 48.390625 27.6875 48.390625 
Q 23 48.390625 18.546875 47.265625 
Q 14.109375 46.140625 10.015625 43.890625 
L 10.015625 52.203125 
Q 14.9375 54.109375 19.578125 55.046875 
Q 24.21875 56 28.609375 56 
Q 40.484375 56 46.34375 49.84375 
Q 52.203125 43.703125 52.203125 31.203125 
" id="DejaVuSans-61"/>
      <path d="M 10.6875 12.40625 
L 21 12.40625 
L 21 0 
L 10.6875 0 
z
" id="DejaVuSans-2e"/>
      <path d="M 8.5 21.578125 
L 8.5 54.6875 
L 17.484375 54.6875 
L 17.484375 21.921875 
Q 17.484375 14.15625 20.5 10.265625 
Q 23.53125 6.390625 29.59375 6.390625 
Q 36.859375 6.390625 41.078125 11.03125 
Q 45.3125 15.671875 45.3125 23.6875 
L 45.3125 54.6875 
L 54.296875 54.6875 
L 54.296875 0 
L 45.3125 0 
L 45.3125 8.40625 
Q 42.046875 3.421875 37.71875 1 
Q 33.40625 -1.421875 27.6875 -1.421875 
Q 18.265625 -1.421875 13.375 4.4375 
Q 8.5 10.296875 8.5 21.578125 
M 31.109375 56 
z
" id="DejaVuSans-75"/>
     </defs>
     <g transform="translate(14.798438 172.104062)rotate(-90)scale(0.1 -0.1)">
      <use xlink:href="#DejaVuSans-49"/>
      <use x="29.492188" xlink:href="#DejaVuSans-6e"/>
      <use x="92.871094" xlink:href="#DejaVuSans-74"/>
      <use x="132.080078" xlink:href="#DejaVuSans-65"/>
      <use x="193.603516" xlink:href="#DejaVuSans-6e"/>
      <use x="256.982422" xlink:href="#DejaVuSans-73"/>
      <use x="309.082031" xlink:href="#DejaVuSans-69"/>
      <use x="336.865234" xlink:href="#DejaVuSans-74"/>
      <use x="376.074219" xlink:href="#DejaVuSans-79"/>
      <use x="435.253906" xlink:href="#DejaVuSans-20"/>
      <use x="467.041016" xlink:href="#DejaVuSans-28"/>
      <use x="506.054688" xlink:href="#DejaVuSans-61"/>
      <use x="567.333984" xlink:href="#DejaVuSans-2e"/>
      <use x="599.121094" xlink:href="#DejaVuSans-75"/>
      <use x="662.5" xlink:href="#DejaVuSans-2e"/>
      <use x="694.287109" xlink:href="#DejaVuSans-29"/>
     </g>
    </g>
   </g>
   <g id="line2d_15">
    <path clip-path="url(#pcaa147fa5e)" d="M 79.981534 237.382932 
L 80.387454 156.184474 
L 80.691893 135.845836 
L 80.894853 129.883166 
L 81.097813 128.44713 
L 81.300773 133.613737 
L 81.808173 144.181087 
L 82.011132 148.582849 
L 82.620012 164.59777 
L 82.721492 163.286607 
L 82.822972 167.579105 
L 82.924452 167.547887 
L 83.228891 172.558403 
L 83.431851 175.446084 
L 83.736291 181.127791 
L 83.837771 181.424363 
L 84.040731 187.808479 
L 84.142211 186.93437 
L 84.44665 194.411122 
L 84.54813 195.207185 
L 85.46145 213.891259 
L 85.562929 215.093159 
L 85.867369 220.618775 
L 85.968849 221.648975 
L 86.171809 225.785382 
L 86.273289 226.206827 
L 86.577729 230.405671 
L 86.679209 230.749071 
L 87.186608 236.102987 
L 87.288088 235.275705 
L 87.389568 235.54106 
L 87.491048 238.038513 
L 87.592528 237.476586 
L 88.201407 240.81693 
L 88.302887 240.098913 
L 88.505847 241.769085 
L 88.607327 242.159312 
L 88.708807 241.769085 
L 88.810287 242.502712 
L 88.911767 242.034439 
L 89.013247 242.206139 
L 89.317686 243.189511 
L 89.723606 243.735829 
L 89.926566 244.422629 
L 90.129526 244.547502 
L 90.231006 244.968947 
L 90.332485 244.656765 
L 90.433965 244.859683 
L 90.535445 244.797247 
L 90.636925 245.062602 
L 90.738405 244.968947 
L 90.941365 245.249911 
L 91.042845 244.906511 
L 91.245805 245.905492 
L 91.448765 245.608919 
L 91.550244 245.874274 
L 91.651724 245.562092 
L 91.753204 245.686965 
L 91.854684 245.999147 
L 92.057644 245.967928 
L 92.362084 246.467419 
L 92.565044 246.436201 
L 92.666524 246.514246 
L 92.768003 246.45181 
L 92.869483 246.248892 
L 92.970963 246.826428 
L 93.072443 246.373765 
L 93.173923 246.732774 
L 93.275403 246.529855 
L 93.478363 246.951301 
L 93.579843 246.529855 
L 93.681323 246.763992 
L 93.985762 246.62351 
L 94.087242 247.201046 
L 94.188722 246.857646 
L 94.290202 247.060564 
L 94.391682 246.717164 
L 94.493162 246.904474 
L 94.696122 246.436201 
L 94.899082 247.013737 
L 95.000562 246.904474 
L 95.203521 246.904474 
L 95.305001 247.247873 
L 95.406481 247.044955 
L 95.609441 247.263482 
L 95.710921 246.842037 
L 96.015361 247.325919 
L 96.42128 247.216655 
L 96.52276 247.357137 
L 96.62424 247.154219 
L 96.8272 247.497619 
L 97.03016 247.232264 
L 97.13164 247.716146 
L 97.3346 247.341528 
L 97.639039 247.201046 
L 97.841999 247.341528 
L 98.044959 247.528837 
L 98.146439 247.778582 
L 98.247919 247.341528 
L 98.552359 247.6381 
L 98.653839 247.403964 
L 98.856798 247.606882 
L 99.161238 247.419573 
L 99.364198 247.8098 
L 99.465678 247.544446 
L 99.567158 247.591273 
L 99.668638 247.372746 
L 99.871598 247.606882 
L 99.973077 247.6381 
L 100.074557 247.466401 
L 100.277517 247.560055 
L 100.480477 247.684928 
L 100.581957 247.934673 
L 100.683437 247.544446 
L 100.784917 247.65371 
L 100.886397 247.403964 
L 101.089357 247.887846 
L 101.292316 247.466401 
L 101.698236 247.747364 
L 101.799716 247.591273 
L 102.002676 247.731755 
L 102.104156 247.6381 
L 102.205636 247.903455 
L 102.307115 247.731755 
L 102.408595 247.872237 
L 102.510075 247.622491 
L 102.713035 247.997109 
L 102.915995 247.669319 
L 103.017475 247.544446 
L 103.118955 247.887846 
L 103.321915 247.794191 
L 103.524874 247.841019 
L 103.727834 247.497619 
L 103.930794 247.919064 
L 104.235234 247.731755 
L 104.438194 247.872237 
L 104.539674 247.669319 
L 104.742633 247.794191 
L 105.250033 247.825409 
L 105.351513 248.028328 
L 105.554473 247.544446 
L 105.757433 247.8098 
L 105.960392 247.919064 
L 106.061872 247.997109 
L 106.163352 247.778582 
L 106.264832 247.872237 
L 106.366312 247.684928 
L 106.670752 248.059546 
L 107.076672 247.6381 
L 107.178151 247.872237 
L 107.279631 247.762973 
L 107.584071 248.075155 
L 107.787031 247.684928 
L 107.888511 247.919064 
L 107.989991 247.606882 
L 108.192951 247.825409 
L 108.39591 247.9815 
L 108.59887 247.950282 
L 108.80183 247.700537 
L 108.90331 248.168809 
L 109.00479 247.950282 
L 109.20775 247.965891 
L 109.512189 247.825409 
L 109.715149 247.794191 
L 109.918109 247.934673 
L 110.121069 247.684928 
L 110.222549 248.012719 
L 110.324029 247.856628 
L 110.526989 247.887846 
L 110.729948 247.794191 
L 110.831428 247.965891 
L 110.932908 247.919064 
L 111.034388 247.747364 
L 111.135868 248.043937 
L 111.237348 247.841019 
L 111.338828 248.200028 
L 111.440308 248.1532 
L 111.541788 247.794191 
L 111.643268 247.856628 
L 111.744748 248.1532 
L 111.846228 247.778582 
L 112.049187 247.9815 
L 112.150667 247.762973 
L 112.353627 247.9815 
L 112.658067 248.121982 
L 112.759547 247.872237 
L 112.861027 247.997109 
L 112.962507 247.887846 
L 113.063987 247.950282 
L 113.266946 247.778582 
L 113.368426 248.059546 
L 113.469906 247.934673 
L 113.571386 248.059546 
L 113.672866 247.794191 
L 113.774346 248.075155 
L 113.875826 248.028328 
L 113.977306 247.8098 
L 114.078786 248.200028 
L 114.180266 248.059546 
L 114.281746 247.716146 
L 114.484705 248.168809 
L 114.789145 247.856628 
L 114.890625 247.9815 
L 115.093585 247.747364 
L 115.398025 247.965891 
L 115.702464 247.8098 
L 115.803944 248.028328 
L 115.905424 247.934673 
L 116.006904 248.090764 
L 116.209864 247.934673 
L 116.311344 247.903455 
L 116.514304 248.215637 
L 116.615784 247.872237 
L 116.717263 248.028328 
L 116.818743 247.841019 
L 116.920223 248.090764 
L 117.123183 247.825409 
L 117.224663 247.9815 
L 117.326143 247.825409 
L 117.427623 247.9815 
L 117.529103 247.887846 
L 117.732063 248.028328 
L 117.935022 247.872237 
L 118.137982 247.903455 
L 118.239462 247.778582 
L 118.645382 248.090764 
L 118.746862 247.965891 
L 118.848342 248.059546 
L 119.152781 247.934673 
L 119.254261 248.012719 
L 119.457221 247.762973 
L 119.558701 248.059546 
L 119.761661 247.762973 
L 120.066101 247.9815 
L 120.167581 247.950282 
L 120.269061 248.043937 
L 120.37054 247.950282 
L 120.5735 248.012719 
L 120.77646 247.716146 
L 120.97942 248.059546 
L 121.18238 247.762973 
L 121.28386 248.090764 
L 121.38534 247.8098 
L 121.48682 248.059546 
L 121.588299 247.778582 
L 121.791259 248.012719 
L 121.892739 247.841019 
L 121.994219 248.090764 
L 122.197179 247.934673 
L 122.298659 247.965891 
L 122.501619 247.825409 
L 122.603099 248.028328 
L 122.704578 247.856628 
L 122.907538 248.200028 
L 123.009018 248.075155 
L 123.110498 247.934673 
L 123.414938 247.997109 
L 123.820858 248.028328 
L 123.922337 248.200028 
L 124.125297 247.903455 
L 124.226777 248.059546 
L 124.429737 247.9815 
L 124.632697 247.716146 
L 124.734177 247.856628 
L 124.835657 247.887846 
L 125.038617 248.090764 
L 125.241576 247.872237 
L 125.444536 248.090764 
L 125.546016 247.919064 
L 125.647496 248.106373 
L 125.951936 247.856628 
L 126.154896 248.059546 
L 126.256376 247.887846 
L 126.357855 248.106373 
L 126.560815 247.762973 
L 126.763775 247.919064 
L 126.865255 247.872237 
L 127.169695 248.075155 
L 127.474135 247.762973 
L 127.575614 248.090764 
L 127.880054 247.762973 
L 128.083014 248.137591 
L 128.184494 247.9815 
L 128.387454 248.075155 
L 128.488934 247.747364 
L 128.691893 248.059546 
L 128.894853 247.684928 
L 128.996333 247.747364 
L 129.300773 248.215637 
L 129.402253 247.856628 
L 129.503733 248.137591 
L 129.605213 247.856628 
L 129.808173 248.043937 
L 130.011132 247.9815 
L 130.112612 248.043937 
L 130.214092 247.825409 
L 130.315572 247.919064 
L 130.417052 247.731755 
L 130.518532 248.059546 
L 130.721492 247.825409 
L 130.924452 247.903455 
L 131.025932 247.575664 
L 131.127411 248.028328 
L 131.228891 247.997109 
L 131.330371 248.075155 
L 131.533331 247.887846 
L 131.837771 248.059546 
L 131.939251 247.856628 
L 132.040731 248.1532 
L 132.142211 248.059546 
L 132.243691 248.168809 
L 132.54813 247.794191 
L 132.64961 248.043937 
L 132.85257 247.887846 
L 132.95405 248.043937 
L 133.05553 247.841019 
L 133.25849 247.9815 
L 133.35997 247.8098 
L 133.562929 248.028328 
L 133.765889 247.8098 
L 133.867369 247.919064 
L 133.968849 247.825409 
L 134.070329 247.887846 
L 134.171809 248.090764 
L 134.273289 247.606882 
L 134.374769 248.043937 
L 134.476249 247.9815 
L 134.577729 247.778582 
L 134.679209 248.075155 
L 134.780688 247.997109 
L 134.882168 248.200028 
L 134.983648 247.8098 
L 135.186608 248.059546 
L 135.389568 247.669319 
L 135.491048 247.8098 
L 135.694008 248.012719 
L 135.795488 247.747364 
L 135.896967 248.012719 
L 136.099927 247.700537 
L 136.302887 247.965891 
L 136.404367 247.9815 
L 136.505847 247.6381 
L 136.607327 247.950282 
L 136.708807 247.794191 
L 136.911767 247.934673 
L 137.013247 247.794191 
L 137.114726 247.9815 
L 137.216206 247.841019 
L 137.520646 248.028328 
L 137.825086 247.8098 
L 138.028046 248.059546 
L 138.231006 247.794191 
L 138.332485 247.856628 
L 138.433965 248.137591 
L 138.636925 247.856628 
L 138.738405 247.965891 
L 138.839885 247.841019 
L 138.941365 248.043937 
L 139.042845 247.9815 
L 139.144325 248.184418 
L 139.245805 247.9815 
L 139.347285 248.106373 
L 139.448765 247.731755 
L 139.550244 247.762973 
L 139.651724 247.934673 
L 139.753204 247.6381 
L 139.854684 247.919064 
L 140.057644 247.856628 
L 140.159124 247.965891 
L 140.260604 247.747364 
L 140.362084 248.012719 
L 140.463564 247.887846 
L 140.565044 248.043937 
L 140.869483 247.778582 
L 140.970963 248.075155 
L 141.173923 247.825409 
L 141.376883 247.919064 
L 141.478363 247.825409 
L 141.884283 248.168809 
L 142.087242 247.950282 
L 142.188722 247.841019 
L 142.290202 247.965891 
L 142.391682 247.794191 
L 142.493162 248.012719 
L 142.594642 247.934673 
L 142.696122 247.997109 
L 143.000562 247.825409 
L 143.305001 247.841019 
L 143.406481 247.700537 
L 143.507961 247.934673 
L 143.609441 247.825409 
L 143.710921 247.950282 
L 143.812401 247.794191 
L 143.913881 247.9815 
L 144.015361 247.762973 
L 144.116841 247.9815 
L 144.218321 247.825409 
L 144.3198 248.106373 
L 144.62424 247.825409 
L 144.72572 247.841019 
L 144.92868 247.950282 
L 145.03016 247.778582 
L 145.13164 248.012719 
L 145.3346 247.778582 
L 145.43608 248.059546 
L 145.537559 248.012719 
L 145.639039 248.121982 
L 145.841999 247.887846 
L 145.943479 248.012719 
L 146.044959 247.731755 
L 146.247919 247.950282 
L 146.450879 247.747364 
L 146.552359 247.934673 
L 146.755318 247.903455 
L 146.856798 247.903455 
L 146.958278 247.6381 
L 147.059758 247.856628 
L 147.161238 247.747364 
L 147.465678 247.856628 
L 147.567158 248.200028 
L 147.770118 247.841019 
L 147.871598 247.934673 
L 147.973077 247.747364 
L 148.176037 248.059546 
L 148.378997 247.997109 
L 148.480477 248.137591 
L 148.683437 247.700537 
L 148.784917 247.856628 
L 148.987877 247.825409 
L 149.089357 247.669319 
L 149.292316 248.059546 
L 149.495276 247.762973 
L 149.596756 247.8098 
L 149.698236 248.106373 
L 149.799716 247.856628 
L 150.002676 248.028328 
L 150.104156 247.872237 
L 150.205636 247.997109 
L 150.408595 247.872237 
L 150.510075 247.950282 
L 150.611555 247.794191 
L 150.814515 247.9815 
L 151.017475 248.028328 
L 151.118955 247.716146 
L 151.220435 248.043937 
L 151.423395 247.856628 
L 151.727834 248.075155 
L 151.829314 248.028328 
L 151.930794 247.622491 
L 152.032274 248.043937 
L 152.235234 247.825409 
L 152.336714 247.934673 
L 152.438194 247.669319 
L 152.641154 248.012719 
L 152.844113 247.887846 
L 152.945593 247.778582 
L 153.047073 247.997109 
L 153.148553 247.778582 
L 153.452993 247.997109 
L 153.554473 248.012719 
L 153.655953 247.6381 
L 153.757433 247.872237 
L 153.960392 247.841019 
L 154.061872 247.997109 
L 154.366312 247.841019 
L 154.467792 248.200028 
L 154.670752 247.997109 
L 154.975192 247.8098 
L 155.482591 248.028328 
L 155.989991 247.887846 
L 156.091471 248.075155 
L 156.59887 247.841019 
L 157.00479 247.997109 
L 157.10627 247.684928 
L 157.30923 247.997109 
L 157.613669 247.560055 
L 157.816629 247.934673 
L 158.019589 247.731755 
L 158.121069 247.965891 
L 158.324029 247.872237 
L 158.425509 248.012719 
L 158.628469 247.856628 
L 158.729948 247.903455 
L 158.831428 247.794191 
L 159.034388 247.9815 
L 159.135868 247.778582 
L 159.440308 247.919064 
L 159.541788 247.825409 
L 159.643268 247.965891 
L 159.744748 247.669319 
L 160.049187 248.012719 
L 160.252147 247.794191 
L 160.353627 247.716146 
L 160.556587 247.934673 
L 160.658067 247.9815 
L 160.861027 247.794191 
L 161.063987 247.903455 
L 161.165466 247.560055 
L 161.266946 248.059546 
L 161.368426 247.887846 
L 161.571386 247.9815 
L 161.672866 248.012719 
L 161.774346 247.903455 
L 161.875826 248.043937 
L 162.078786 247.887846 
L 162.281746 247.856628 
L 162.383225 247.856628 
L 162.484705 247.997109 
L 162.687665 247.762973 
L 162.890625 248.028328 
L 162.992105 247.887846 
L 163.093585 248.043937 
L 163.195065 247.950282 
L 163.296545 247.65371 
L 163.398025 248.043937 
L 163.600984 247.8098 
L 163.702464 247.997109 
L 163.905424 247.856628 
L 164.006904 247.825409 
L 164.108384 248.043937 
L 164.311344 247.778582 
L 164.412824 247.856628 
L 164.514304 247.778582 
L 164.615784 247.903455 
L 164.717263 247.747364 
L 164.818743 248.043937 
L 165.224663 247.8098 
L 165.326143 247.9815 
L 165.427623 247.903455 
L 165.529103 247.9815 
L 165.732063 247.919064 
L 166.442422 247.731755 
L 166.543902 248.121982 
L 166.645382 248.043937 
L 166.746862 248.168809 
L 166.848342 247.9815 
L 166.949822 248.075155 
L 167.051302 247.965891 
L 167.152781 248.1532 
L 167.355741 247.934673 
L 167.457221 247.997109 
L 167.558701 247.872237 
L 167.660181 247.950282 
L 167.761661 247.825409 
L 167.964621 247.934673 
L 168.167581 247.903455 
L 168.269061 247.544446 
L 168.37054 247.606882 
L 168.5735 248.012719 
L 168.67498 247.9815 
L 168.77646 247.731755 
L 168.97942 247.9815 
L 169.588299 247.762973 
L 169.791259 247.9815 
L 169.892739 247.887846 
L 169.994219 248.059546 
L 170.095699 247.887846 
L 170.298659 247.887846 
L 170.400139 247.747364 
L 170.603099 248.231246 
L 170.704578 248.1532 
L 171.009018 247.778582 
L 171.313458 248.090764 
L 171.414938 247.887846 
L 171.516418 248.1532 
L 171.617898 247.965891 
L 171.719378 248.106373 
L 171.820858 247.919064 
L 171.922337 248.090764 
L 172.023817 247.997109 
L 172.125297 248.075155 
L 172.328257 247.841019 
L 172.531217 247.9815 
L 172.734177 247.841019 
L 172.835657 247.965891 
L 172.937137 247.8098 
L 173.038617 248.184418 
L 173.140096 247.919064 
L 173.748976 248.106373 
L 173.850456 247.731755 
L 173.951936 247.997109 
L 174.053416 247.903455 
L 174.154896 248.137591 
L 174.357855 247.825409 
L 174.763775 247.950282 
L 174.865255 247.997109 
L 174.966735 247.731755 
L 175.169695 247.825409 
L 175.372655 247.950282 
L 175.575614 247.841019 
L 175.677094 248.137591 
L 175.778574 248.043937 
L 175.880054 247.778582 
L 176.083014 248.043937 
L 176.285974 247.887846 
L 176.590414 248.028328 
L 176.691893 247.8098 
L 176.793373 247.887846 
L 176.894853 247.825409 
L 177.097813 248.090764 
L 177.199293 248.1532 
L 177.402253 247.934673 
L 177.503733 247.950282 
L 177.605213 247.762973 
L 177.808173 248.043937 
L 178.011132 247.731755 
L 178.112612 248.1532 
L 178.214092 247.965891 
L 178.315572 248.028328 
L 178.417052 247.778582 
L 178.620012 247.919064 
L 178.721492 248.012719 
L 178.822972 247.919064 
L 179.127411 248.231246 
L 179.228891 247.762973 
L 179.330371 247.997109 
L 179.533331 247.778582 
L 179.736291 248.090764 
L 180.040731 247.731755 
L 180.142211 248.012719 
L 180.44665 247.872237 
L 180.54813 248.075155 
L 180.85257 247.794191 
L 180.95405 247.9815 
L 181.15701 247.872237 
L 181.35997 248.121982 
L 181.562929 247.841019 
L 181.664409 248.075155 
L 182.070329 247.950282 
L 182.171809 247.919064 
L 182.273289 248.043937 
L 182.476249 247.887846 
L 182.577729 248.043937 
L 182.780688 247.731755 
L 182.983648 247.903455 
L 183.085128 247.825409 
L 183.288088 248.012719 
L 183.592528 248.1532 
L 183.694008 247.950282 
L 183.795488 247.997109 
L 183.896967 247.872237 
L 183.998447 248.075155 
L 184.404367 247.825409 
L 184.607327 248.137591 
L 184.708807 248.059546 
L 184.810287 248.1532 
L 185.013247 248.012719 
L 185.114726 248.059546 
L 185.216206 247.950282 
L 185.317686 248.012719 
L 185.419166 247.825409 
L 185.622126 247.997109 
L 185.825086 247.700537 
L 186.028046 247.9815 
L 186.129526 248.028328 
L 186.433965 247.887846 
L 186.636925 248.012719 
L 186.738405 247.731755 
L 186.941365 248.075155 
L 187.144325 247.778582 
L 187.347285 248.059546 
L 187.448765 247.887846 
L 187.753204 247.997109 
L 187.956164 247.997109 
L 188.057644 248.121982 
L 188.260604 247.794191 
L 188.362084 248.012719 
L 188.565044 247.841019 
L 188.666524 248.059546 
L 188.768003 247.825409 
L 188.970963 248.028328 
L 189.275403 248.012719 
L 189.376883 248.137591 
L 189.478363 247.747364 
L 189.681323 248.106373 
L 189.884283 247.887846 
L 189.985762 248.028328 
L 190.188722 247.950282 
L 190.493162 247.919064 
L 190.594642 247.778582 
L 190.696122 247.856628 
L 190.797602 248.075155 
L 191.000562 247.950282 
L 191.102041 248.075155 
L 191.203521 247.9815 
L 191.406481 248.059546 
L 191.609441 247.872237 
L 192.015361 248.075155 
L 192.218321 247.9815 
L 192.52276 247.825409 
L 192.62424 248.184418 
L 192.72572 247.684928 
L 192.8272 247.965891 
L 192.92868 247.8098 
L 193.13164 248.184418 
L 193.23312 247.841019 
L 193.3346 248.121982 
L 193.537559 247.762973 
L 193.740519 248.137591 
L 193.943479 247.997109 
L 194.044959 247.872237 
L 194.146439 248.028328 
L 194.349399 247.903455 
L 194.552359 248.059546 
L 194.755318 247.9815 
L 194.856798 248.075155 
L 195.059758 247.794191 
L 195.364198 248.028328 
L 195.567158 247.9815 
L 195.668638 247.6381 
L 195.871598 247.950282 
L 196.074557 247.9815 
L 196.277517 247.856628 
L 196.378997 248.121982 
L 196.480477 247.919064 
L 196.683437 248.059546 
L 196.784917 247.872237 
L 196.886397 248.121982 
L 196.987877 247.919064 
L 197.190836 248.028328 
L 197.292316 247.450791 
L 197.393796 248.043937 
L 197.495276 247.841019 
L 197.698236 248.012719 
L 197.799716 247.965891 
L 197.901196 247.731755 
L 198.104156 247.997109 
L 198.205636 247.669319 
L 198.510075 248.106373 
L 198.611555 247.919064 
L 198.915995 248.137591 
L 199.423395 248.090764 
L 199.524874 248.168809 
L 199.626354 247.965891 
L 199.829314 248.028328 
L 200.032274 248.043937 
L 200.133754 247.965891 
L 200.235234 248.356118 
L 200.438194 247.919064 
L 200.539674 247.934673 
L 200.641154 247.778582 
L 200.945593 248.012719 
L 201.047073 247.934673 
L 201.148553 248.309291 
L 201.351513 247.872237 
L 201.960392 248.028328 
L 202.061872 248.215637 
L 202.163352 247.762973 
L 202.264832 247.9815 
L 202.366312 247.778582 
L 202.467792 247.856628 
L 202.569272 248.137591 
L 202.670752 247.872237 
L 202.772232 248.309291 
L 202.873712 248.090764 
L 202.975192 248.246855 
L 203.279631 248.090764 
L 203.381111 247.794191 
L 203.584071 247.919064 
L 203.685551 247.762973 
L 203.787031 248.075155 
L 203.888511 247.919064 
L 203.989991 248.028328 
L 204.192951 247.856628 
L 204.29443 248.090764 
L 204.39591 247.9815 
L 204.59887 248.090764 
L 204.70035 247.934673 
L 204.80183 248.028328 
L 204.90331 247.731755 
L 205.00479 248.1532 
L 205.10627 247.778582 
L 205.30923 248.012719 
L 205.41071 247.965891 
L 205.715149 248.184418 
L 205.918109 248.090764 
L 206.019589 247.950282 
L 206.121069 248.028328 
L 206.324029 247.919064 
L 206.628469 248.043937 
L 206.729948 247.856628 
L 206.932908 247.965891 
L 207.034388 247.950282 
L 207.135868 247.794191 
L 207.237348 248.043937 
L 207.338828 247.872237 
L 207.643268 248.3249 
L 207.846228 248.106373 
L 208.150667 247.965891 
L 208.353627 248.028328 
L 208.455107 247.560055 
L 208.556587 247.934673 
L 208.658067 247.887846 
L 208.759547 247.794191 
L 208.861027 248.1532 
L 208.962507 247.934673 
L 209.165466 248.168809 
L 209.368426 247.950282 
L 209.469906 247.872237 
L 209.571386 248.137591 
L 209.672866 247.872237 
L 209.774346 248.1532 
L 209.875826 247.903455 
L 209.977306 248.106373 
L 210.078786 247.887846 
L 210.281746 248.121982 
L 210.383225 248.215637 
L 210.484705 247.934673 
L 210.586185 248.1532 
L 210.789145 248.012719 
L 210.890625 248.059546 
L 210.992105 247.950282 
L 211.195065 248.090764 
L 211.296545 248.059546 
L 211.398025 247.825409 
L 211.499504 248.137591 
L 211.803944 247.841019 
L 212.209864 248.075155 
L 212.311344 247.856628 
L 212.514304 247.934673 
L 212.615784 247.903455 
L 212.818743 248.121982 
L 212.920223 247.9815 
L 213.021703 248.1532 
L 213.224663 248.012719 
L 213.326143 248.121982 
L 213.427623 248.012719 
L 213.529103 248.075155 
L 213.732063 247.8098 
L 213.833543 248.106373 
L 214.137982 247.856628 
L 214.239462 248.200028 
L 214.442422 247.9815 
L 214.543902 248.028328 
L 214.645382 247.872237 
L 214.848342 248.121982 
L 215.152781 247.934673 
L 215.457221 247.919064 
L 215.558701 248.231246 
L 215.660181 248.059546 
L 215.761661 248.200028 
L 216.47202 247.856628 
L 216.5735 248.090764 
L 216.77646 247.872237 
L 217.18238 248.137591 
L 217.28386 247.9815 
L 217.38534 248.106373 
L 217.48682 247.934673 
L 217.791259 248.090764 
L 217.994219 247.934673 
L 218.095699 247.965891 
L 218.197179 248.168809 
L 218.400139 248.028328 
L 218.704578 248.059546 
L 218.806058 247.887846 
L 219.009018 248.028328 
L 219.110498 247.872237 
L 219.211978 248.137591 
L 219.414938 247.825409 
L 219.617898 247.997109 
L 219.719378 247.9815 
L 219.820858 248.1532 
L 220.125297 248.075155 
L 220.226777 248.246855 
L 220.328257 248.168809 
L 220.429737 247.8098 
L 220.531217 247.856628 
L 220.632697 248.168809 
L 220.734177 247.950282 
L 220.937137 248.106373 
L 221.241576 248.012719 
L 221.343056 248.121982 
L 221.444536 247.887846 
L 221.647496 248.184418 
L 221.850456 247.919064 
L 222.154896 247.965891 
L 222.256376 247.934673 
L 222.357855 248.059546 
L 222.459335 247.903455 
L 222.560815 248.059546 
L 222.662295 247.934673 
L 222.865255 248.1532 
L 222.966735 247.997109 
L 223.271175 248.059546 
L 223.372655 248.012719 
L 223.575614 248.1532 
L 223.677094 247.903455 
L 223.880054 248.090764 
L 223.981534 247.903455 
L 224.083014 247.997109 
L 224.184494 247.8098 
L 224.285974 248.012719 
L 224.488934 247.762973 
L 224.691893 247.997109 
L 224.793373 247.887846 
L 224.894853 248.121982 
L 224.996333 247.887846 
L 225.097813 248.059546 
L 225.199293 247.778582 
L 225.402253 248.184418 
L 225.605213 247.919064 
L 225.706693 248.028328 
L 225.909652 247.9815 
L 226.112612 247.903455 
L 226.214092 247.856628 
L 226.417052 248.043937 
L 226.518532 247.934673 
L 226.620012 248.043937 
L 226.822972 247.934673 
L 227.025932 247.997109 
L 227.431851 247.762973 
L 227.634811 248.028328 
L 227.736291 247.903455 
L 227.939251 248.106373 
L 228.142211 247.794191 
L 228.34517 248.028328 
L 228.44665 247.887846 
L 228.75109 248.121982 
L 228.85257 247.903455 
L 229.15701 247.934673 
L 229.664409 248.059546 
L 229.968849 247.716146 
L 230.374769 248.059546 
L 230.577729 247.965891 
L 230.882168 247.887846 
L 231.085128 248.106373 
L 231.389568 248.106373 
L 231.592528 248.028328 
L 231.998447 247.997109 
L 232.099927 248.075155 
L 232.201407 247.934673 
L 232.302887 248.043937 
L 232.404367 247.919064 
L 232.607327 248.028328 
L 232.708807 247.997109 
L 232.810287 247.825409 
L 233.013247 248.168809 
L 233.216206 248.028328 
L 233.317686 248.028328 
L 233.419166 247.903455 
L 233.520646 248.121982 
L 233.622126 248.028328 
L 233.723606 248.168809 
L 233.926566 247.778582 
L 234.028046 247.919064 
L 234.129526 247.887846 
L 234.231006 247.9815 
L 234.332485 247.778582 
L 234.636925 247.950282 
L 234.839885 248.043937 
L 234.941365 247.856628 
L 235.144325 248.075155 
L 235.245805 247.950282 
L 235.550244 248.137591 
L 235.753204 247.841019 
L 236.057644 248.106373 
L 236.666524 247.856628 
L 236.768003 248.059546 
L 236.970963 247.887846 
L 237.275403 247.9815 
L 237.376883 247.778582 
L 237.478363 248.075155 
L 237.579843 247.965891 
L 237.681323 248.075155 
L 237.782803 247.731755 
L 237.884283 247.950282 
L 237.985762 247.887846 
L 238.188722 248.075155 
L 238.290202 247.825409 
L 238.493162 247.950282 
L 238.594642 247.6381 
L 238.696122 248.043937 
L 238.797602 247.997109 
L 239.000562 247.872237 
L 239.102041 247.887846 
L 239.203521 248.059546 
L 239.305001 248.012719 
L 239.507961 248.059546 
L 239.913881 247.934673 
L 240.3198 248.184418 
L 240.42128 247.825409 
L 240.62424 247.997109 
L 240.72572 248.028328 
L 240.8272 247.934673 
L 240.92868 248.028328 
L 241.13164 247.950282 
L 241.23312 247.965891 
L 241.3346 247.778582 
L 241.639039 247.825409 
L 241.740519 248.137591 
L 241.943479 247.716146 
L 242.146439 248.043937 
L 242.349399 247.887846 
L 242.450879 248.059546 
L 242.653839 247.965891 
L 242.856798 248.043937 
L 243.161238 248.012719 
L 243.262718 248.028328 
L 243.364198 247.919064 
L 243.465678 247.9815 
L 243.567158 247.794191 
L 243.668638 247.965891 
L 243.770118 247.856628 
L 243.871598 248.075155 
L 243.973077 247.856628 
L 244.074557 248.106373 
L 244.277517 247.856628 
L 244.480477 247.919064 
L 244.581957 247.919064 
L 244.683437 248.1532 
L 244.987877 247.887846 
L 245.089357 248.043937 
L 245.393796 247.762973 
L 245.495276 248.106373 
L 245.799716 247.903455 
L 245.901196 248.028328 
L 246.002676 247.887846 
L 246.104156 248.012719 
L 246.205636 247.919064 
L 246.408595 248.012719 
L 246.510075 247.825409 
L 246.611555 247.950282 
L 246.713035 247.841019 
L 246.814515 248.278073 
L 246.915995 247.887846 
L 247.118955 247.997109 
L 247.321915 247.950282 
L 247.423395 248.121982 
L 247.524874 247.794191 
L 247.626354 248.293682 
L 247.727834 247.887846 
L 247.930794 248.012719 
L 248.032274 248.121982 
L 248.133754 247.903455 
L 248.336714 248.137591 
L 248.539674 247.887846 
L 248.742633 248.168809 
L 248.945593 247.872237 
L 249.148553 247.997109 
L 249.554473 248.075155 
L 249.655953 247.762973 
L 249.757433 247.841019 
L 249.858913 248.059546 
L 249.960392 247.8098 
L 250.061872 247.919064 
L 250.264832 247.903455 
L 250.366312 248.215637 
L 250.772232 247.950282 
L 251.178151 247.8098 
L 251.279631 247.856628 
L 251.381111 248.231246 
L 251.482591 248.184418 
L 251.584071 248.106373 
L 251.787031 247.825409 
L 251.989991 247.950282 
L 252.091471 247.872237 
L 252.29443 248.012719 
L 252.70035 247.887846 
L 252.80183 248.121982 
L 252.90331 247.887846 
L 253.00479 248.059546 
L 253.41071 247.856628 
L 253.613669 247.934673 
L 253.918109 248.090764 
L 254.121069 247.560055 
L 254.222549 247.934673 
L 254.324029 247.684928 
L 254.425509 247.762973 
L 254.526989 248.106373 
L 254.729948 247.747364 
L 255.034388 248.043937 
L 255.135868 247.997109 
L 255.237348 248.1532 
L 255.440308 247.794191 
L 255.541788 248.043937 
L 255.643268 247.950282 
L 255.744748 248.075155 
L 255.846228 247.872237 
L 255.947707 247.950282 
L 256.049187 247.841019 
L 256.150667 247.934673 
L 256.353627 248.231246 
L 256.556587 247.919064 
L 256.658067 247.716146 
L 256.861027 248.028328 
L 256.962507 247.965891 
L 257.063987 248.121982 
L 257.165466 247.8098 
L 257.469906 248.231246 
L 257.672866 248.106373 
L 257.774346 248.012719 
L 257.875826 248.075155 
L 258.180266 247.856628 
L 258.383225 248.075155 
L 258.789145 247.934673 
L 258.890625 248.090764 
L 258.992105 247.841019 
L 259.093585 247.997109 
L 259.195065 247.919064 
L 259.296545 248.012719 
L 259.499504 247.903455 
L 259.702464 248.075155 
L 259.905424 247.997109 
L 260.006904 247.856628 
L 260.108384 247.965891 
L 260.209864 247.65371 
L 260.412824 247.965891 
L 260.615784 247.8098 
L 260.818743 248.028328 
L 260.920223 248.090764 
L 261.123183 247.856628 
L 261.224663 248.059546 
L 261.630583 247.950282 
L 261.833543 247.903455 
L 261.935022 247.825409 
L 262.036502 247.919064 
L 262.137982 247.778582 
L 262.340942 248.121982 
L 262.442422 247.841019 
L 262.645382 248.121982 
L 262.949822 247.841019 
L 263.152781 247.872237 
L 263.254261 247.778582 
L 263.457221 247.997109 
L 263.558701 247.794191 
L 263.660181 248.075155 
L 263.863141 247.887846 
L 264.066101 248.028328 
L 264.167581 247.778582 
L 264.37054 248.059546 
L 264.47202 248.059546 
L 264.67498 247.9815 
L 264.77646 247.872237 
L 264.87794 247.997109 
L 265.0809 247.700537 
L 265.28386 247.9815 
L 265.38534 247.872237 
L 265.48682 248.231246 
L 265.588299 247.841019 
L 265.791259 248.012719 
L 266.095699 247.934673 
L 266.298659 248.043937 
L 266.400139 248.278073 
L 266.501619 247.950282 
L 266.806058 248.215637 
L 266.907538 247.856628 
L 267.009018 248.137591 
L 267.110498 247.887846 
L 267.211978 247.950282 
L 267.313458 248.231246 
L 267.414938 247.903455 
L 267.516418 248.028328 
L 267.820858 247.794191 
L 268.023817 248.059546 
L 268.226777 247.794191 
L 268.328257 248.137591 
L 268.429737 247.903455 
L 268.531217 248.028328 
L 268.734177 247.872237 
L 268.937137 248.028328 
L 269.140096 247.887846 
L 269.343056 247.934673 
L 269.748976 247.856628 
L 269.850456 248.184418 
L 270.053416 248.075155 
L 270.154896 248.184418 
L 270.256376 247.872237 
L 270.459335 248.1532 
L 270.560815 247.9815 
L 270.662295 248.200028 
L 270.763775 247.950282 
L 270.966735 247.997109 
L 271.169695 247.856628 
L 271.372655 247.856628 
L 271.474135 247.856628 
L 271.575614 248.106373 
L 271.778574 247.997109 
L 271.880054 247.700537 
L 272.083014 247.9815 
L 272.285974 248.012719 
L 272.488934 247.778582 
L 272.691893 248.106373 
L 272.793373 247.731755 
L 272.996333 247.903455 
L 273.097813 247.778582 
L 273.300773 248.106373 
L 273.402253 247.794191 
L 273.503733 247.919064 
L 273.605213 247.684928 
L 273.808173 247.903455 
L 273.909652 248.043937 
L 274.011132 247.872237 
L 274.112612 248.075155 
L 274.315572 247.8098 
L 274.417052 248.137591 
L 274.620012 247.794191 
L 274.721492 248.090764 
L 274.822972 247.606882 
L 274.924452 247.9815 
L 275.025932 247.841019 
L 275.127411 248.106373 
L 275.228891 247.872237 
L 275.431851 248.121982 
L 275.533331 247.841019 
L 275.736291 247.934673 
L 275.837771 247.8098 
L 275.939251 248.1532 
L 276.040731 247.9815 
L 276.142211 248.106373 
L 276.243691 248.043937 
L 276.34517 247.778582 
L 276.54813 248.121982 
L 276.64961 247.762973 
L 276.75109 248.090764 
L 277.05553 247.903455 
L 277.15701 248.137591 
L 277.25849 247.856628 
L 277.35997 248.075155 
L 277.562929 247.856628 
L 277.664409 247.934673 
L 277.867369 247.8098 
L 277.968849 248.075155 
L 278.273289 247.919064 
L 278.374769 248.075155 
L 278.476249 247.794191 
L 278.679209 247.903455 
L 278.780688 247.950282 
L 278.882168 248.168809 
L 279.085128 247.919064 
L 279.186608 247.887846 
L 279.288088 248.215637 
L 279.491048 247.856628 
L 279.592528 248.059546 
L 279.694008 247.762973 
L 279.795488 247.965891 
L 279.896967 247.622491 
L 280.099927 248.090764 
L 280.404367 247.6381 
L 280.607327 248.106373 
L 280.810287 247.950282 
L 280.911767 247.950282 
L 281.013247 248.090764 
L 281.216206 247.919064 
L 281.317686 248.043937 
L 281.622126 247.934673 
L 281.825086 248.059546 
L 282.028046 248.028328 
L 282.231006 247.950282 
L 282.332485 247.716146 
L 282.433965 247.950282 
L 282.636925 247.794191 
L 282.839885 248.106373 
L 282.941365 247.997109 
L 283.651724 247.934673 
L 283.753204 248.121982 
L 283.854684 247.903455 
L 284.260604 247.9815 
L 284.362084 247.684928 
L 284.565044 248.059546 
L 284.666524 247.934673 
L 284.768003 248.059546 
L 285.173923 247.762973 
L 285.275403 247.872237 
L 285.376883 247.8098 
L 285.579843 247.9815 
L 285.681323 248.028328 
L 285.782803 248.215637 
L 285.985762 247.919064 
L 286.087242 248.028328 
L 286.188722 247.841019 
L 286.391682 248.137591 
L 286.594642 247.841019 
L 286.899082 248.059546 
L 287.000562 247.919064 
L 287.102041 248.121982 
L 287.203521 247.825409 
L 287.406481 247.965891 
L 287.507961 247.825409 
L 287.609441 248.075155 
L 287.913881 247.762973 
L 288.218321 247.841019 
L 288.3198 248.028328 
L 288.42128 247.841019 
L 288.52276 248.028328 
L 288.62424 247.856628 
L 288.72572 247.903455 
L 288.8272 247.700537 
L 289.03016 247.934673 
L 289.23312 247.731755 
L 289.43608 248.168809 
L 289.537559 247.841019 
L 289.740519 248.028328 
L 289.943479 247.841019 
L 290.044959 248.121982 
L 290.247919 247.65371 
L 290.349399 247.762973 
L 290.450879 248.012719 
L 290.552359 247.919064 
L 290.653839 247.997109 
L 290.755318 247.684928 
L 290.856798 248.075155 
L 291.059758 247.950282 
L 291.161238 248.137591 
L 291.262718 247.934673 
L 291.567158 248.106373 
L 291.668638 247.747364 
L 291.770118 248.246855 
L 291.871598 247.825409 
L 291.973077 247.856628 
L 292.074557 248.106373 
L 292.176037 247.856628 
L 292.277517 247.9815 
L 292.581957 247.841019 
L 292.683437 247.997109 
L 292.784917 247.872237 
L 292.886397 247.9815 
L 293.089357 247.825409 
L 293.190836 248.043937 
L 293.292316 247.794191 
L 293.393796 247.841019 
L 293.495276 248.043937 
L 293.698236 247.950282 
L 293.799716 248.106373 
L 294.002676 247.841019 
L 294.205636 247.919064 
L 294.307115 248.059546 
L 294.408595 247.794191 
L 294.611555 247.965891 
L 294.713035 247.794191 
L 294.915995 248.106373 
L 295.017475 247.903455 
L 295.118955 248.012719 
L 295.321915 247.762973 
L 295.727834 248.012719 
L 295.930794 247.997109 
L 296.032274 247.8098 
L 296.133754 248.121982 
L 296.235234 247.747364 
L 296.438194 248.106373 
L 296.641154 247.841019 
L 297.047073 247.934673 
L 297.148553 247.669319 
L 297.351513 247.903455 
L 297.452993 247.762973 
L 297.554473 247.9815 
L 297.757433 247.669319 
L 297.858913 248.012719 
L 297.960392 247.794191 
L 298.163352 247.965891 
L 298.264832 247.919064 
L 298.366312 248.106373 
L 298.467792 247.684928 
L 298.670752 248.137591 
L 298.772232 248.075155 
L 298.975192 247.8098 
L 299.076672 248.075155 
L 299.279631 247.8098 
L 299.381111 248.106373 
L 299.584071 247.794191 
L 299.888511 248.028328 
L 300.192951 247.841019 
L 300.39591 248.075155 
L 300.59887 247.716146 
L 300.80183 248.090764 
L 301.10627 247.934673 
L 301.30923 247.950282 
L 301.41071 248.012719 
L 301.613669 247.700537 
L 301.715149 247.903455 
L 301.816629 247.856628 
L 301.918109 248.231246 
L 302.121069 247.919064 
L 302.222549 247.8098 
L 302.324029 247.965891 
L 302.425509 247.872237 
L 302.526989 247.950282 
L 302.628469 247.825409 
L 302.729948 248.043937 
L 302.932908 247.841019 
L 303.135868 247.841019 
L 303.237348 248.012719 
L 303.541788 247.747364 
L 303.744748 248.028328 
L 303.846228 247.903455 
L 303.947707 247.965891 
L 304.252147 247.794191 
L 304.353627 248.043937 
L 304.455107 247.8098 
L 304.556587 248.043937 
L 304.658067 247.919064 
L 304.759547 248.028328 
L 305.063987 247.856628 
L 305.165466 248.106373 
L 305.266946 247.856628 
L 305.571386 247.950282 
L 305.774346 247.716146 
L 305.977306 248.012719 
L 306.078786 247.794191 
L 306.281746 247.794191 
L 306.383225 247.825409 
L 306.484705 248.028328 
L 306.586185 247.778582 
L 306.687665 247.950282 
L 306.890625 247.8098 
L 307.093585 248.043937 
L 307.195065 247.903455 
L 307.398025 247.997109 
L 307.600984 247.700537 
L 307.702464 247.997109 
L 307.803944 247.8098 
L 307.905424 247.997109 
L 308.006904 247.825409 
L 308.209864 247.965891 
L 308.311344 247.856628 
L 308.514304 248.012719 
L 308.615784 247.919064 
L 308.717263 248.059546 
L 308.920223 247.872237 
L 309.021703 247.887846 
L 309.123183 247.778582 
L 309.326143 248.012719 
L 309.427623 247.716146 
L 309.529103 248.043937 
L 309.630583 247.762973 
L 309.732063 247.9815 
L 309.833543 247.762973 
L 310.036502 247.9815 
L 310.137982 247.747364 
L 310.239462 247.825409 
L 310.340942 248.075155 
L 310.543902 247.747364 
L 310.746862 247.919064 
L 310.848342 247.8098 
L 311.051302 248.075155 
L 311.355741 247.8098 
L 311.558701 247.8098 
L 311.660181 248.1532 
L 311.761661 247.560055 
L 311.964621 248.090764 
L 312.066101 247.700537 
L 312.167581 247.934673 
L 312.269061 247.825409 
L 312.47202 248.043937 
L 312.67498 247.731755 
L 312.77646 247.950282 
L 312.97942 247.684928 
L 313.0809 247.825409 
L 313.18238 247.997109 
L 313.28386 247.8098 
L 313.588299 247.997109 
L 313.689779 247.778582 
L 313.791259 248.059546 
L 313.892739 247.825409 
L 314.095699 248.012719 
L 314.197179 247.700537 
L 314.298659 247.762973 
L 314.501619 247.997109 
L 314.806058 247.919064 
L 314.907538 247.8098 
L 315.110498 248.028328 
L 315.211978 247.9815 
L 315.313458 248.090764 
L 315.516418 247.778582 
L 315.820858 248.184418 
L 315.922337 247.747364 
L 316.023817 248.043937 
L 316.328257 247.825409 
L 316.429737 247.997109 
L 316.531217 247.887846 
L 316.734177 248.137591 
L 316.835657 247.950282 
L 316.937137 248.043937 
L 317.140096 247.856628 
L 317.444536 247.841019 
L 317.748976 247.950282 
L 317.951936 247.934673 
L 318.053416 247.778582 
L 318.154896 247.887846 
L 318.357855 247.716146 
L 318.560815 247.965891 
L 318.662295 247.903455 
L 318.763775 247.669319 
L 318.966735 247.841019 
L 319.068215 248.012719 
L 319.169695 247.716146 
L 319.372655 247.903455 
L 319.575614 247.65371 
L 319.778574 248.075155 
L 319.880054 248.106373 
L 320.083014 247.700537 
L 320.285974 248.168809 
L 320.387454 247.887846 
L 320.590414 247.9815 
L 320.793373 247.48201 
L 320.996333 247.903455 
L 321.097813 247.48201 
L 321.199293 248.075155 
L 321.402253 247.762973 
L 321.605213 247.856628 
L 321.706693 247.997109 
L 321.808173 247.872237 
L 321.909652 247.934673 
L 322.011132 247.778582 
L 322.417052 247.965891 
L 322.721492 247.747364 
L 322.822972 247.887846 
L 322.924452 247.747364 
L 323.025932 248.028328 
L 323.127411 247.8098 
L 323.228891 248.106373 
L 323.330371 247.919064 
L 323.533331 247.965891 
L 323.634811 247.934673 
L 323.736291 247.747364 
L 323.939251 247.997109 
L 324.040731 248.090764 
L 324.142211 247.887846 
L 324.243691 247.965891 
L 324.34517 247.825409 
L 324.44665 247.919064 
L 324.54813 247.794191 
L 324.85257 247.856628 
L 325.05553 247.762973 
L 325.15701 247.872237 
L 325.25849 247.762973 
L 325.35997 247.965891 
L 325.562929 247.856628 
L 325.765889 247.856628 
L 326.171809 248.028328 
L 326.273289 247.794191 
L 326.476249 248.106373 
L 326.577729 247.669319 
L 326.780688 248.137591 
L 326.882168 247.731755 
L 327.085128 247.903455 
L 327.288088 247.903455 
L 327.389568 248.028328 
L 327.491048 247.716146 
L 327.694008 247.965891 
L 327.795488 247.65371 
L 327.896967 247.747364 
L 328.099927 248.137591 
L 328.201407 247.8098 
L 328.404367 247.950282 
L 328.607327 247.669319 
L 328.708807 247.700537 
L 328.810287 247.934673 
L 329.013247 247.747364 
L 329.114726 247.872237 
L 329.216206 247.700537 
L 329.419166 247.841019 
L 329.520646 247.622491 
L 329.622126 247.887846 
L 329.723606 247.747364 
L 329.825086 248.012719 
L 330.028046 247.950282 
L 330.129526 247.965891 
L 330.231006 247.762973 
L 330.433965 248.043937 
L 330.535445 247.8098 
L 330.941365 247.9815 
L 331.042845 247.606882 
L 331.245805 247.856628 
L 331.651724 247.622491 
L 331.753204 247.919064 
L 331.956164 247.778582 
L 332.159124 248.028328 
L 332.463564 247.731755 
L 332.565044 248.028328 
L 332.666524 247.747364 
L 332.768003 247.8098 
L 332.869483 248.012719 
L 333.275403 247.669319 
L 333.579843 247.997109 
L 333.681323 247.9815 
L 333.782803 247.6381 
L 333.985762 248.059546 
L 334.188722 247.794191 
L 334.290202 248.012719 
L 334.696122 247.65371 
L 334.899082 247.965891 
L 335.203521 247.65371 
L 335.406481 247.872237 
L 335.507961 247.934673 
L 335.710921 247.841019 
L 335.913881 248.028328 
L 336.116841 247.669319 
L 336.3198 247.856628 
L 336.42128 247.544446 
L 336.52276 247.934673 
L 336.62424 247.65371 
L 336.72572 247.778582 
L 336.8272 247.669319 
L 337.03016 247.841019 
L 337.23312 247.950282 
L 337.3346 247.684928 
L 337.43608 247.903455 
L 337.740519 247.575664 
L 337.943479 247.965891 
L 338.044959 247.762973 
L 338.349399 247.9815 
L 338.450879 247.6381 
L 338.653839 247.794191 
L 338.856798 247.700537 
L 338.958278 248.059546 
L 339.262718 247.887846 
L 339.465678 247.950282 
L 339.871598 247.731755 
L 340.074557 248.043937 
L 340.176037 247.684928 
L 340.378997 247.997109 
L 340.480477 247.778582 
L 340.581957 247.856628 
L 340.784917 247.6381 
L 340.886397 247.997109 
L 340.987877 247.606882 
L 341.089357 247.716146 
L 341.190836 248.121982 
L 341.292316 247.6381 
L 341.393796 247.778582 
L 341.495276 247.684928 
L 341.596756 247.934673 
L 341.698236 247.65371 
L 341.799716 247.762973 
L 342.002676 247.684928 
L 342.104156 247.762973 
L 342.205636 247.622491 
L 342.510075 248.028328 
L 342.611555 247.778582 
L 342.713035 248.059546 
L 342.814515 247.622491 
L 343.017475 247.841019 
L 343.321915 247.856628 
L 343.423395 247.841019 
L 343.524874 247.6381 
L 343.829314 247.841019 
L 344.032274 248.028328 
L 344.133754 247.762973 
L 344.235234 248.012719 
L 344.336714 247.8098 
L 344.438194 247.950282 
L 344.641154 247.700537 
L 344.844113 247.778582 
L 344.945593 247.65371 
L 345.148553 247.8098 
L 345.250033 247.934673 
L 345.351513 247.716146 
L 345.452993 248.012719 
L 345.554473 247.575664 
L 345.858913 247.919064 
L 345.960392 248.028328 
L 346.061872 247.841019 
L 346.163352 247.903455 
L 346.264832 247.731755 
L 346.772232 247.903455 
L 347.076672 247.825409 
L 347.178151 247.700537 
L 347.482591 247.997109 
L 347.787031 247.762973 
L 348.091471 247.950282 
L 348.192951 247.919064 
L 348.29443 247.65371 
L 348.39591 247.856628 
L 348.49739 247.716146 
L 348.59887 248.028328 
L 348.80183 247.606882 
L 349.10627 247.887846 
L 349.512189 247.794191 
L 349.613669 247.997109 
L 349.715149 247.6381 
L 350.222549 247.997109 
L 350.324029 247.778582 
L 350.425509 247.825409 
L 350.526989 247.65371 
L 350.729948 247.903455 
L 350.831428 247.606882 
L 350.932908 247.872237 
L 351.034388 247.528837 
L 351.237348 247.841019 
L 351.338828 247.684928 
L 351.440308 248.012719 
L 351.541788 247.762973 
L 351.643268 247.887846 
L 352.049187 247.622491 
L 352.252147 247.700537 
L 352.353627 247.965891 
L 352.556587 247.825409 
L 352.962507 247.856628 
L 353.063987 247.6381 
L 353.368426 247.903455 
L 353.469906 247.684928 
L 353.672866 247.825409 
L 353.774346 247.872237 
L 353.977306 247.669319 
L 354.484705 247.825409 
L 354.586185 248.106373 
L 354.687665 247.747364 
L 354.890625 248.168809 
L 355.093585 247.684928 
L 355.296545 247.934673 
L 355.398025 247.731755 
L 355.499504 248.1532 
L 355.600984 247.8098 
L 355.702464 247.997109 
L 355.905424 247.731755 
L 356.006904 247.841019 
L 356.209864 247.716146 
L 356.311344 247.950282 
L 356.412824 247.778582 
L 356.514304 247.887846 
L 356.615784 247.700537 
L 356.818743 247.731755 
L 356.920223 247.684928 
L 357.123183 247.887846 
L 357.326143 247.841019 
L 357.732063 247.731755 
L 357.833543 247.8098 
L 358.036502 247.513228 
L 358.137982 248.059546 
L 358.239462 247.762973 
L 358.340942 247.9815 
L 358.543902 247.65371 
L 358.746862 247.762973 
L 359.051302 247.887846 
L 359.152781 247.435182 
L 359.355741 247.856628 
L 359.558701 247.731755 
L 359.660181 247.8098 
L 359.761661 247.65371 
L 359.964621 247.778582 
L 360.47202 247.8098 
L 360.5735 247.560055 
L 360.77646 247.934673 
L 361.0809 247.560055 
L 361.18238 247.950282 
L 361.38534 247.684928 
L 361.48682 247.716146 
L 361.588299 247.9815 
L 361.689779 247.606882 
L 361.994219 247.669319 
L 362.095699 247.466401 
L 362.298659 247.716146 
L 362.400139 247.513228 
L 362.603099 247.794191 
L 362.704578 247.8098 
L 362.806058 247.669319 
L 363.009018 247.8098 
L 363.211978 247.887846 
L 363.313458 247.716146 
L 363.414938 247.825409 
L 363.516418 247.591273 
L 363.617898 247.8098 
L 363.820858 247.684928 
L 364.023817 247.856628 
L 364.226777 247.700537 
L 364.328257 247.669319 
L 364.429737 247.841019 
L 364.632697 247.747364 
L 364.734177 247.841019 
L 364.835657 247.591273 
L 365.038617 247.903455 
L 365.241576 247.762973 
L 365.343056 247.762973 
L 365.444536 247.560055 
L 365.546016 247.606882 
L 365.647496 247.872237 
L 365.748976 247.575664 
L 366.154896 248.106373 
L 366.256376 247.606882 
L 366.459335 247.872237 
L 366.560815 247.669319 
L 366.662295 247.778582 
L 366.763775 247.669319 
L 366.966735 247.934673 
L 367.169695 247.513228 
L 367.372655 247.9815 
L 367.575614 247.872237 
L 367.981534 247.65371 
L 368.184494 247.872237 
L 368.387454 247.903455 
L 368.590414 247.450791 
L 368.894853 247.684928 
L 368.996333 247.48201 
L 369.199293 247.903455 
L 369.300773 247.872237 
L 369.402253 247.700537 
L 369.503733 247.8098 
L 369.605213 247.716146 
L 369.808173 247.794191 
L 369.909652 247.8098 
L 370.011132 247.560055 
L 370.214092 247.8098 
L 370.417052 247.622491 
L 370.518532 247.8098 
L 370.620012 247.65371 
L 370.822972 247.700537 
L 370.924452 247.544446 
L 371.025932 247.887846 
L 371.228891 247.731755 
L 371.330371 248.043937 
L 371.431851 247.65371 
L 371.736291 247.794191 
L 371.939251 247.919064 
L 372.040731 247.419573 
L 372.243691 247.841019 
L 372.34517 247.841019 
L 372.54813 247.747364 
L 372.64961 247.856628 
L 372.75109 247.669319 
L 372.85257 247.762973 
L 372.95405 247.6381 
L 373.05553 247.872237 
L 373.15701 247.8098 
L 373.25849 247.591273 
L 373.46145 247.794191 
L 373.562929 247.872237 
L 373.664409 247.684928 
L 373.867369 247.8098 
L 374.070329 247.762973 
L 374.171809 247.560055 
L 374.273289 247.8098 
L 374.374769 247.606882 
L 374.476249 247.731755 
L 374.577729 247.544446 
L 374.679209 247.606882 
L 374.780688 247.841019 
L 375.186608 247.560055 
L 375.389568 247.887846 
L 375.694008 247.48201 
L 375.795488 247.747364 
L 375.896967 247.48201 
L 375.998447 247.903455 
L 376.099927 247.6381 
L 376.201407 248.012719 
L 376.404367 247.669319 
L 376.505847 247.65371 
L 376.607327 247.841019 
L 376.810287 247.8098 
L 376.911767 247.934673 
L 377.114726 247.622491 
L 377.317686 247.669319 
L 377.622126 247.622491 
L 377.825086 247.778582 
L 377.926566 247.560055 
L 378.028046 247.762973 
L 378.231006 247.716146 
L 378.636925 247.794191 
L 378.839885 247.466401 
L 379.042845 247.669319 
L 379.144325 247.513228 
L 379.347285 247.8098 
L 379.448765 247.606882 
L 379.651724 247.8098 
L 379.956164 247.560055 
L 380.057644 247.934673 
L 380.260604 247.606882 
L 380.362084 247.6381 
L 380.463564 247.8098 
L 380.565044 247.528837 
L 380.666524 247.856628 
L 381.072443 247.575664 
L 381.376883 247.731755 
L 381.478363 247.731755 
L 381.579843 247.934673 
L 381.782803 247.669319 
L 381.884283 247.466401 
L 382.087242 247.778582 
L 382.188722 247.591273 
L 382.391682 247.669319 
L 382.493162 247.591273 
L 382.594642 247.731755 
L 382.696122 247.544446 
L 382.899082 247.622491 
L 383.000562 247.903455 
L 383.203521 247.591273 
L 383.406481 247.841019 
L 383.507961 247.919064 
L 383.710921 247.606882 
L 383.812401 247.997109 
L 384.015361 247.778582 
L 384.116841 247.903455 
L 384.218321 247.622491 
L 384.3198 247.950282 
L 384.42128 247.419573 
L 384.52276 247.716146 
L 384.62424 247.466401 
L 384.72572 247.6381 
L 384.92868 247.48201 
L 385.03016 247.778582 
L 385.13164 247.591273 
L 385.23312 247.8098 
L 385.3346 247.65371 
L 385.43608 247.872237 
L 385.639039 247.466401 
L 386.146439 247.903455 
L 386.247919 247.872237 
L 386.349399 247.497619 
L 386.552359 247.8098 
L 386.755318 247.716146 
L 386.856798 247.778582 
L 386.958278 247.544446 
L 387.059758 247.872237 
L 387.161238 247.544446 
L 387.262718 247.934673 
L 387.364198 247.606882 
L 387.465678 247.700537 
L 387.567158 247.575664 
L 387.668638 247.778582 
L 387.770118 247.575664 
L 387.871598 247.856628 
L 388.074557 247.731755 
L 388.277517 247.903455 
L 388.378997 247.48201 
L 388.683437 247.747364 
L 388.784917 247.731755 
L 388.886397 247.872237 
L 389.190836 247.606882 
L 389.292316 247.872237 
L 389.393796 247.544446 
L 389.596756 247.825409 
L 389.901196 247.497619 
L 390.104156 247.856628 
L 390.408595 247.575664 
L 390.814515 247.778582 
L 390.915995 247.575664 
L 391.017475 247.747364 
L 391.220435 247.591273 
L 391.524874 247.872237 
L 391.626354 247.622491 
L 391.930794 247.903455 
L 392.539674 247.497619 
L 392.641154 247.841019 
L 392.844113 247.622491 
L 392.945593 247.778582 
L 393.250033 247.466401 
L 393.351513 247.778582 
L 393.554473 247.747364 
L 393.655953 247.794191 
L 393.757433 247.6381 
L 393.960392 247.9815 
L 394.061872 247.48201 
L 394.264832 247.731755 
L 394.366312 247.747364 
L 394.467792 247.544446 
L 394.569272 247.731755 
L 394.670752 247.65371 
L 394.772232 247.762973 
L 394.975192 247.513228 
L 395.178151 247.841019 
L 395.381111 247.513228 
L 395.482591 247.528837 
L 395.584071 247.887846 
L 395.685551 247.591273 
L 395.888511 247.794191 
L 396.091471 247.669319 
L 396.192951 247.747364 
L 396.29443 247.560055 
L 396.39591 247.731755 
L 396.49739 247.606882 
L 396.59887 247.841019 
L 396.70035 247.606882 
L 397.00479 247.8098 
L 397.10627 247.341528 
L 397.20775 247.65371 
L 397.30923 247.528837 
L 397.613669 247.872237 
L 397.715149 247.684928 
L 397.816629 247.778582 
L 397.918109 247.403964 
L 398.019589 247.762973 
L 398.121069 247.731755 
L 398.324029 247.747364 
L 398.425509 247.591273 
L 398.628469 247.825409 
L 398.729948 247.716146 
L 398.831428 247.778582 
L 399.034388 247.497619 
L 399.135868 247.747364 
L 399.440308 247.575664 
L 399.541788 247.65371 
L 399.643268 247.48201 
L 399.744748 247.825409 
L 399.846228 247.747364 
L 399.947707 247.419573 
L 400.252147 247.872237 
L 400.353627 247.700537 
L 400.455107 247.513228 
L 400.759547 247.747364 
L 400.861027 247.747364 
L 401.063987 247.466401 
L 401.266946 247.466401 
L 401.469906 247.919064 
L 401.571386 247.575664 
L 401.774346 247.591273 
L 401.875826 247.403964 
L 401.977306 247.778582 
L 402.078786 247.6381 
L 402.281746 247.684928 
L 402.484705 247.778582 
L 402.586185 247.48201 
L 402.789145 247.762973 
L 402.890625 247.497619 
L 402.992105 247.856628 
L 403.093585 247.544446 
L 403.195065 247.591273 
L 403.296545 247.934673 
L 403.499504 247.684928 
L 403.702464 247.497619 
L 403.803944 247.6381 
L 403.905424 247.48201 
L 404.108384 247.762973 
L 404.311344 247.606882 
L 404.412824 247.825409 
L 404.615784 247.575664 
L 404.717263 247.841019 
L 404.818743 247.528837 
L 405.021703 247.684928 
L 405.123183 247.65371 
L 405.224663 247.450791 
L 405.326143 247.700537 
L 405.427623 247.419573 
L 405.529103 247.934673 
L 405.630583 247.435182 
L 405.833543 247.841019 
L 406.036502 247.544446 
L 406.137982 247.622491 
L 406.239462 247.560055 
L 406.340942 247.716146 
L 406.543902 247.716146 
L 406.746862 247.716146 
L 406.848342 247.65371 
L 406.949822 247.403964 
L 407.152781 247.856628 
L 407.558701 247.622491 
L 407.660181 247.903455 
L 407.964621 247.450791 
L 408.167581 247.8098 
L 408.269061 247.403964 
L 408.47202 247.778582 
L 408.5735 247.466401 
L 408.67498 247.684928 
L 408.77646 247.6381 
L 408.87794 247.794191 
L 408.97942 247.48201 
L 409.0809 247.700537 
L 409.18238 247.560055 
L 409.28386 247.778582 
L 409.48682 247.388355 
L 409.588299 247.684928 
L 409.689779 247.419573 
L 409.892739 247.513228 
L 409.994219 247.48201 
L 410.095699 247.825409 
L 410.197179 246.998128 
L 410.400139 247.497619 
L 410.603099 247.950282 
L 410.704578 247.528837 
L 410.806058 247.606882 
L 410.907538 247.528837 
L 411.009018 247.762973 
L 411.110498 247.357137 
L 411.313458 247.794191 
L 411.414938 247.419573 
L 411.516418 247.762973 
L 411.719378 247.372746 
L 411.820858 247.466401 
L 412.023817 247.357137 
L 412.226777 247.716146 
L 412.429737 247.700537 
L 412.632697 247.560055 
L 412.835657 247.435182 
L 413.140096 247.65371 
L 413.241576 247.388355 
L 413.546016 248.028328 
L 413.647496 247.575664 
L 413.748976 247.622491 
L 414.053416 247.403964 
L 414.256376 247.731755 
L 414.357855 247.513228 
L 414.459335 247.747364 
L 414.560815 247.6381 
L 414.662295 247.794191 
L 414.763775 247.544446 
L 414.865255 247.65371 
L 414.966735 247.544446 
L 415.169695 247.65371 
L 415.575614 247.700537 
L 415.778574 247.65371 
L 415.880054 247.497619 
L 415.981534 247.747364 
L 416.285974 247.560055 
L 416.387454 247.856628 
L 416.590414 247.450791 
L 416.691893 247.528837 
L 416.793373 247.560055 
L 416.894853 247.731755 
L 416.996333 247.544446 
L 417.097813 247.700537 
L 417.300773 247.341528 
L 417.503733 247.747364 
L 417.706693 247.700537 
L 417.808173 247.419573 
L 417.909652 247.591273 
L 418.011132 247.528837 
L 418.214092 247.65371 
L 418.315572 247.731755 
L 418.417052 247.575664 
L 418.721492 247.731755 
L 418.924452 247.528837 
L 419.127411 247.856628 
L 419.228891 247.544446 
L 419.330371 247.8098 
L 419.634811 247.575664 
L 419.837771 247.747364 
L 419.939251 247.622491 
L 420.142211 247.716146 
L 420.243691 247.31031 
L 420.34517 247.372746 
L 420.44665 247.794191 
L 420.64961 247.513228 
L 420.85257 247.669319 
L 421.05553 247.513228 
L 421.35997 247.700537 
L 421.562929 247.65371 
L 421.765889 247.294701 
L 421.867369 247.528837 
L 421.968849 247.403964 
L 422.171809 247.716146 
L 422.374769 247.747364 
L 422.476249 247.341528 
L 422.679209 247.606882 
L 422.780688 247.575664 
L 422.882168 247.716146 
L 422.983648 247.279092 
L 423.186608 247.606882 
L 423.288088 247.841019 
L 423.491048 247.419573 
L 423.795488 247.622491 
L 423.896967 247.497619 
L 424.099927 247.700537 
L 424.201407 247.778582 
L 424.404367 247.560055 
L 424.505847 247.575664 
L 424.607327 247.825409 
L 424.708807 247.591273 
L 424.810287 247.669319 
L 425.013247 247.388355 
L 425.216206 247.669319 
L 425.317686 247.48201 
L 425.419166 247.560055 
L 425.520646 247.294701 
L 425.622126 247.575664 
L 425.723606 247.388355 
L 425.825086 247.466401 
L 426.028046 247.31031 
L 426.231006 247.497619 
L 426.332485 247.513228 
L 426.535445 247.403964 
L 426.636925 247.357137 
L 426.738405 247.560055 
L 426.839885 247.341528 
L 426.941365 247.419573 
L 427.042845 247.934673 
L 427.347285 247.372746 
L 427.651724 247.606882 
L 428.057644 247.388355 
L 428.159124 247.716146 
L 428.260604 247.513228 
L 428.362084 247.700537 
L 428.666524 247.435182 
L 428.768003 247.700537 
L 428.869483 247.560055 
L 428.970963 247.6381 
L 429.275403 247.357137 
L 429.376883 247.497619 
L 429.478363 247.279092 
L 429.681323 247.560055 
L 429.884283 247.778582 
L 429.985762 247.216655 
L 430.188722 247.575664 
L 430.290202 247.528837 
L 430.391682 247.169828 
L 430.493162 247.497619 
L 430.594642 247.294701 
L 430.696122 247.747364 
L 430.797602 247.357137 
L 431.102041 247.606882 
L 431.203521 247.591273 
L 431.305001 247.794191 
L 431.406481 247.65371 
L 431.507961 247.169828 
L 431.609441 247.575664 
L 431.710921 247.544446 
L 432.015361 247.419573 
L 432.116841 247.606882 
L 432.42128 247.31031 
L 432.52276 247.606882 
L 432.72572 247.513228 
L 432.8272 247.450791 
L 432.92868 247.528837 
L 433.03016 247.419573 
L 433.23312 247.6381 
L 433.3346 247.450791 
L 433.43608 247.684928 
L 433.639039 247.247873 
L 433.841999 247.606882 
L 433.943479 247.497619 
L 434.146439 247.560055 
L 434.349399 247.419573 
L 434.450879 247.435182 
L 434.552359 247.201046 
L 434.653839 247.403964 
L 434.755318 247.232264 
L 434.856798 247.6381 
L 434.958278 247.357137 
L 435.059758 247.544446 
L 435.161238 247.403964 
L 435.262718 247.6381 
L 435.364198 247.216655 
L 435.567158 247.48201 
L 435.668638 247.466401 
L 435.770118 247.700537 
L 435.871598 247.279092 
L 436.074557 247.466401 
L 436.277517 247.497619 
L 436.480477 247.700537 
L 436.581957 247.341528 
L 436.683437 247.6381 
L 436.784917 247.544446 
L 436.886397 247.606882 
L 436.987877 247.279092 
L 437.495276 247.6381 
L 437.698236 247.466401 
L 437.799716 247.622491 
L 438.002676 247.247873 
L 438.104156 247.65371 
L 438.205636 247.294701 
L 438.307115 247.606882 
L 438.510075 247.357137 
L 438.611555 247.31031 
L 438.814515 247.575664 
L 438.915995 247.357137 
L 439.017475 247.450791 
L 439.220435 247.341528 
L 439.321915 247.201046 
L 439.423395 247.419573 
L 439.524874 247.091783 
L 439.626354 247.700537 
L 439.930794 247.154219 
L 440.133754 247.435182 
L 440.438194 247.341528 
L 440.539674 247.466401 
L 440.742633 247.076173 
L 440.945593 247.544446 
L 441.047073 247.31031 
L 441.148553 247.841019 
L 441.351513 247.294701 
L 441.452993 247.388355 
L 441.554473 247.263482 
L 441.858913 247.591273 
L 441.960392 247.65371 
L 442.366312 247.403964 
L 442.467792 247.123001 
L 442.569272 247.450791 
L 442.670752 247.341528 
L 442.772232 247.060564 
L 442.873712 247.403964 
L 442.975192 247.060564 
L 443.076672 247.341528 
L 443.178151 247.013737 
L 443.279631 247.544446 
L 443.685551 247.123001 
L 443.787031 247.13861 
L 443.888511 247.513228 
L 443.989991 247.263482 
L 444.091471 247.450791 
L 444.39591 247.232264 
L 444.49739 247.513228 
L 444.70035 247.13861 
L 444.80183 247.419573 
L 445.00479 247.216655 
L 445.20775 247.216655 
L 445.30923 247.107392 
L 445.41071 247.466401 
L 445.512189 247.341528 
L 445.613669 247.65371 
L 446.019589 247.294701 
L 446.121069 247.31031 
L 446.222549 247.201046 
L 446.425509 247.341528 
L 446.526989 247.263482 
L 446.628469 247.419573 
L 446.729948 247.357137 
L 446.932908 247.388355 
L 447.034388 247.372746 
L 447.237348 247.091783 
L 447.338828 247.247873 
L 447.440308 247.154219 
L 447.643268 247.513228 
L 447.744748 247.13861 
L 448.150667 247.388355 
L 448.353627 247.232264 
L 448.455107 247.076173 
L 448.556587 247.403964 
L 448.759547 247.123001 
L 448.861027 247.060564 
L 449.063987 247.247873 
L 449.165466 247.060564 
L 449.368426 247.279092 
L 449.469906 247.232264 
L 449.571386 246.935692 
L 449.672866 247.279092 
L 449.774346 247.107392 
L 449.875826 247.341528 
L 449.977306 247.263482 
L 450.078786 247.029346 
L 450.180266 247.169828 
L 450.281746 247.060564 
L 450.383225 247.372746 
L 450.484705 247.325919 
L 450.586185 247.325919 
L 450.789145 247.076173 
L 450.890625 247.419573 
L 451.093585 247.029346 
L 451.296545 247.325919 
L 451.398025 247.232264 
L 451.499504 247.325919 
L 451.702464 247.263482 
L 451.803944 247.279092 
L 451.905424 246.810819 
L 452.006904 247.263482 
L 452.108384 246.857646 
L 452.311344 247.65371 
L 452.514304 247.029346 
L 452.615784 247.044955 
L 452.717263 247.341528 
L 453.021703 246.998128 
L 453.326143 247.513228 
L 453.630583 247.091783 
L 453.732063 247.294701 
L 453.935022 246.96691 
L 454.137982 247.279092 
L 454.239462 247.263482 
L 454.340942 247.091783 
L 454.442422 247.31031 
L 454.645382 247.044955 
L 454.746862 247.185437 
L 454.848342 247.044955 
L 455.355741 247.279092 
L 455.457221 247.091783 
L 455.558701 247.263482 
L 455.761661 246.857646 
L 455.863141 246.732774 
L 456.066101 246.998128 
L 456.167581 247.076173 
L 456.269061 246.935692 
L 456.37054 247.044955 
L 456.5735 246.826428 
L 456.67498 246.951301 
L 456.77646 246.842037 
L 456.87794 247.107392 
L 457.0809 246.920083 
L 457.18238 246.96691 
L 457.28386 246.888864 
L 457.38534 247.48201 
L 457.588299 247.154219 
L 457.892739 247.13861 
L 457.994219 246.701555 
L 458.197179 247.060564 
L 458.501619 247.123001 
L 458.603099 247.107392 
L 458.704578 246.873255 
L 458.806058 247.123001 
L 458.907538 246.982519 
L 459.009018 247.201046 
L 459.110498 247.044955 
L 459.211978 247.123001 
L 459.313458 246.904474 
L 459.414938 247.372746 
L 459.516418 247.169828 
L 459.617898 247.372746 
L 459.719378 246.951301 
L 459.820858 246.998128 
L 459.922337 246.96691 
L 460.125297 247.185437 
L 460.226777 247.154219 
L 460.328257 246.96691 
L 460.531217 247.123001 
L 460.632697 246.951301 
L 460.734177 247.076173 
L 460.937137 246.732774 
L 461.140096 247.201046 
L 461.343056 247.279092 
L 461.444536 246.96691 
L 461.546016 247.013737 
L 461.850456 247.091783 
L 461.951936 246.904474 
L 462.053416 246.998128 
L 462.256376 246.810819 
L 462.357855 246.935692 
L 462.459335 246.873255 
L 462.662295 246.561074 
L 462.865255 246.935692 
L 463.068215 246.951301 
L 463.169695 246.639119 
L 463.271175 246.904474 
L 463.372655 246.483028 
L 463.474135 246.920083 
L 463.575614 246.576683 
L 463.778574 246.763992 
L 463.981534 246.982519 
L 464.083014 246.888864 
L 464.184494 246.373765 
L 464.285974 246.592292 
L 464.387454 246.545465 
L 464.488934 246.826428 
L 464.590414 246.467419 
L 464.691893 247.013737 
L 464.793373 246.96691 
L 464.894853 246.607901 
L 465.199293 246.920083 
L 465.300773 246.779601 
L 465.605213 247.029346 
L 465.808173 246.467419 
L 465.909652 247.060564 
L 466.011132 246.685946 
L 466.214092 247.029346 
L 466.315572 246.79521 
L 466.518532 247.247873 
L 466.620012 246.748383 
L 466.721492 247.341528 
L 466.924452 246.904474 
L 467.025932 246.888864 
L 467.228891 247.13861 
L 467.330371 246.935692 
L 467.431851 247.169828 
L 467.634811 247.044955 
L 467.837771 247.372746 
L 467.939251 246.920083 
L 468.040731 247.528837 
L 468.142211 247.154219 
L 468.243691 247.31031 
L 468.34517 246.904474 
L 468.44665 247.13861 
L 468.54813 246.748383 
L 468.64961 247.013737 
L 468.75109 246.904474 
L 468.85257 247.154219 
L 468.95405 246.873255 
L 469.05553 246.951301 
L 469.15701 246.888864 
L 469.35997 246.96691 
L 469.46145 246.888864 
L 469.562929 246.639119 
L 469.765889 246.685946 
L 469.968849 246.186456 
L 470.171809 246.79521 
L 470.273289 246.248892 
L 470.374769 246.62351 
L 470.476249 246.186456 
L 470.577729 246.389374 
L 470.780688 246.139628 
L 470.882168 246.264501 
L 471.085128 246.030365 
L 471.186608 246.248892 
L 471.389568 245.858665 
L 471.592528 245.749401 
L 471.795488 246.217674 
L 471.998447 245.76501 
L 472.201407 246.061583 
L 472.302887 245.93671 
L 472.505847 246.10841 
L 472.708807 246.186456 
L 472.911767 246.404983 
L 473.013247 246.639119 
L 473.114726 247.169828 
L 473.317686 246.748383 
L 473.419166 247.044955 
L 473.520646 246.935692 
L 473.723606 247.279092 
L 473.825086 246.873255 
L 474.028046 247.560055 
L 474.129526 247.294701 
L 474.332485 247.65371 
L 474.433965 247.279092 
L 474.535445 247.591273 
L 474.738405 247.435182 
L 474.941365 247.513228 
L 475.042845 247.279092 
L 475.144325 247.747364 
L 475.245805 247.684928 
L 475.347285 247.279092 
L 475.550244 247.6381 
L 475.651724 247.247873 
L 475.854684 247.700537 
L 475.956164 247.169828 
L 476.159124 247.403964 
L 476.463564 246.873255 
L 476.666524 247.060564 
L 476.869483 246.935692 
L 477.173923 246.217674 
L 477.275403 246.436201 
L 477.478363 245.874274 
L 477.681323 245.546483 
L 477.884283 244.92212 
L 477.985762 244.906511 
L 478.290202 243.408039 
L 478.391682 243.751438 
L 478.493162 243.689002 
L 478.797602 242.846111 
L 478.899082 243.470475 
L 479.000562 242.70563 
L 479.102041 244.06362 
L 479.203521 243.283166 
L 479.710921 245.59331 
L 479.812401 245.780619 
L 479.913881 245.702574 
L 480.116841 246.592292 
L 480.218321 246.654728 
L 480.42128 247.060564 
L 480.52276 247.528837 
L 480.62424 247.357137 
L 480.92868 247.841019 
L 481.13164 247.903455 
L 481.23312 248.278073 
L 481.3346 248.106373 
L 481.537559 248.231246 
L 482.450879 248.449773 
L 482.552359 248.340509 
L 482.856798 248.480991 
L 482.958278 248.402946 
L 483.161238 248.621473 
L 483.262718 248.449773 
L 483.364198 248.637082 
L 483.668638 248.543427 
L 483.770118 248.652691 
L 483.871598 248.543427 
L 484.074557 248.746345 
L 484.176037 248.621473 
L 484.378997 248.793173 
L 484.581957 248.683909 
L 484.683437 248.699518 
L 484.886397 248.84 
L 485.393796 248.777564 
L 485.596756 248.777564 
L 485.698236 247.591273 
L 485.799716 22.04 
L 485.799716 22.04 
" style="fill:none;stroke:#1f77b4;stroke-linecap:square;stroke-width:1.5;"/>
   </g>
   <g id="patch_3">
    <path d="M 59.690625 260.18 
L 59.690625 10.7 
" style="fill:none;stroke:#000000;stroke-linecap:square;stroke-linejoin:miter;stroke-width:0.8;"/>
   </g>
   <g id="patch_4">
    <path d="M 506.090625 260.18 
L 506.090625 10.7 
" style="fill:none;stroke:#000000;stroke-linecap:square;stroke-linejoin:miter;stroke-width:0.8;"/>
   </g>
   <g id="patch_5">
    <path d="M 59.690625 260.18 
L 506.090625 260.18 
" style="fill:none;stroke:#000000;stroke-linecap:square;stroke-linejoin:miter;stroke-width:0.8;"/>
   </g>
   <g id="patch_6">
    <path d="M 59.690625 10.7 
L 506.090625 10.7 
" style="fill:none;stroke:#000000;stroke-linecap:square;stroke-linejoin:miter;stroke-width:0.8;"/>
   </g>
  </g>
 </g>
 <defs>
  <clipPath id="pcaa147fa5e">
   <rect height="249.48" width="446.4" x="59.690625" y="10.7"/>
  </clipPath>
 </defs>
</svg>
